<svg id="レイヤー_1" data-name="レイヤー 1" xmlns="http://www.w3.org/2000/svg" viewBox="0 0 421.42 569.85">
  <defs>
    <style>
      .cls-1 {
        fill: #595757;
      }

      .cls-2 {
        fill: #fff;
      }

      .cls-3 {
        fill: #b37bb3;
      }

      .cls-4 {
        fill: #c10e73;
      }

      .cls-5 {
        fill: #f5df2c;
      }
    </style>
  </defs>
  <title>imopanda</title>
  <g>
    <path class="cls-1" d="M404.13,485.63c-1.24,5.26-8.9,4.87-13.92,2.87-41.4-16.48-70.92-59.19-71.71-103.74-.05-3,.05-6.18,1.5-8.84,3.56-6.5,13.13-6.58,19.86-3.47s12.32,8.42,17.72,13.61l19.48,18.77c11.06,10.65,22.19,21.38,31.08,33.89,5.78,8.15,10.7,17.48,10.78,27.48s-6,20.57-15.73,22.88"/>
    <path class="cls-1" d="M401.72,485c-2.77,8-21.91-4-25.81-6.35A111.92,111.92,0,0,1,353.8,461a116.54,116.54,0,0,1-28.47-48.4A103.74,103.74,0,0,1,321,384.76c-.06-5.46,1.23-10.39,7.2-11.57,5.29-1.06,10.54,1.12,14.91,3.9,9.94,6.33,18.18,16,26.62,24.14,8.23,7.94,16.6,15.77,24.33,24.2,8.38,9.15,17.28,19.57,20.9,31.68,3.37,11.23.27,26-12.43,29.56-3.1.87-1.78,5.69,1.33,4.82,10.12-2.84,16.46-12.36,17.43-22.56,1.2-12.67-5.76-24.58-13.08-34.33-8.67-11.52-19-21.56-29.38-31.54-10.2-9.82-20.07-21.27-31.76-29.33-7.49-5.16-20.07-9.34-27.44-1.51-3.2,3.41-3.67,8.07-3.63,12.54a106.07,106.07,0,0,0,1.83,17.95,120.42,120.42,0,0,0,31.43,60.82,115.09,115.09,0,0,0,30.45,22.92c7.06,3.64,22.81,11.47,26.83-.16,1.06-3.05-3.77-4.35-4.82-1.33Z"/>
  </g>
  <g>
    <path class="cls-1" d="M17.37,522.79C12.08,523,7.28,519.08,5,514.3S2.4,504.05,2.45,498.74A149.61,149.61,0,0,1,30,413.92c4.15-5.83,8.82-11.44,14.78-15.4s13.09-6.13,20-8.2c10.13-3,22.81-5.39,29.84,2.5,4.33,4.86,4.75,11.94,4.94,18.44.41,13.46.74,27.4-4.44,39.83-2.31,5.55-5.65,10.6-9,15.6C69.77,491.26,51.54,516.54,24.72,529c-4.64,2.15-10.66,3.69-14.43.23-6.42-5.88.46-19.75-7.21-23.87"/>
    <path class="cls-1" d="M17.37,520.29C1.08,519.82,4.68,493.94,5.91,483.4A147.87,147.87,0,0,1,16,444.46a134.74,134.74,0,0,1,19.8-34c8.85-10.81,20.54-15.49,33.78-18.81,5.3-1.32,11.29-2.45,16.68-1,7.61,2.06,10,8.88,10.65,16.09,1,12.61,1.29,26.59-2.38,38.79-3.78,12.57-12.88,23.82-20.44,34.39-7.27,10.18-15.12,20-24.23,28.63a107.3,107.3,0,0,1-15.41,12.22c-5.09,3.28-13.49,9.38-20,7.85s-4.54-10.7-4.93-15.45c-.34-4.14-1.57-7.66-5.2-10-2.72-1.74-5.23,2.59-2.52,4.31,4.49,2.87,2.52,11.1,3.14,15.64.66,4.82,3.18,9.06,8.18,10.29C19,534.85,25.2,531.68,30.22,529a101.81,101.81,0,0,0,16.71-11.28c11.22-9.19,20.58-20.43,29.13-32.09,8.69-11.84,19-24.61,23.29-38.83,2.25-7.49,2.88-15.41,3-23.19.09-7.27.3-15-1.06-22.13-2.5-13.11-13.63-17.78-25.93-16.1-13.26,1.8-28.21,6.63-38,16-11,10.47-18.94,25-24.86,38.77A153.45,153.45,0,0,0,.34,489.35c-1,13-1.13,35.41,17,35.94,3.22.09,3.22-4.91,0-5Z"/>
  </g>
  <g>
    <path class="cls-2" d="M93,565.19c-10-12.64-8.82-30.44-7.2-46.45L98.83,389.48l220.8-11.9c19.25,27.9,26.48,62.12,33.3,95.33,2.37,11.59,4.76,23.28,4.6,35.1-.23,17.2-5.83,34.13-4.71,51.29"/>
    <path class="cls-1" d="M97.27,562.67c-7.7-10.26-8.11-22.94-7.28-35.28,1-14.83,2.89-29.65,4.38-44.44l9.46-93.47-5,5,74.58-4,118.89-6.41,27.33-1.47-4.32-2.48c17.06,25.09,24.52,54.67,30.69,84,3.29,15.64,7.26,31.52,6.41,47.62s-5.42,31.51-4.59,47.6c.33,6.4,10.33,6.44,10,0-.71-13.6,2.41-26.83,3.94-40.26s.06-26.78-2.53-40.13c-4.74-24.41-9.69-49.21-18.89-72.39-2.06-5.17-4.29-10.28-6.81-15.25-2.72-5.39-5.79-12.29-10-16.72-1.9-2-3.47-1.94-5.8-1.87-6,.17-12,.65-18.05,1L144.78,382l-45.95,2.48a5.16,5.16,0,0,0-5,5L84,486.92c-1.49,14.77-3.61,29.62-4.19,44.45-.5,12.68,1,25.92,8.85,36.35,3.81,5.09,12.5.11,8.64-5.05Z"/>
  </g>
  <g>
    <path class="cls-2" d="M318.39,187.34c20.75,14.64,38.41,34,45.35,58.36s5.86,50.36,1.32,75.27c-1.53,8.38-3.49,16.81-7.63,24.26-5.9,10.59-15.77,18.4-26.07,24.83-47.44,29.59-106.18,34.43-162.12,32.8-23.65-.69-47.79-2.51-69.53-11.79C58.35,373.42,16.05,325.4,19.86,279.88q.69-8.16,1.37-16.33c.9-10.8,1.85-21.78,5.82-31.88,5.33-13.55,18.21-21.56,29.54-30.76,35-28.4,52.45-59,90.15-64.46S299.86,174.27,318.39,187.34Z"/>
    <path class="cls-1" d="M315.86,191.66c13.79,9.82,26.34,21.81,34.94,36.52,9.37,16,12.64,34.73,12.89,53.09a190,190,0,0,1-2.09,30.14c-1.36,9.16-2.83,18.74-6.53,27.3-6.93,16.07-23.06,26-37.95,33.73-32.08,16.76-68.5,23.23-104.34,25.08a533,533,0,0,1-55.39-.13c-19.15-1-38.73-3.43-56.45-11.2-29.57-13-55.71-38.26-68.89-67.8a88.62,88.62,0,0,1-6.61-22c-1.31-8.26-.59-16.4.11-24.67,1.49-17.81,1.52-37.47,14.89-51C46.09,215,52.7,210.4,59,205.39c7.26-5.81,14.13-12.07,20.84-18.49,11.73-11.24,22.89-23.52,36.34-32.78,10.68-7.35,23.4-12.78,36.28-13.12,9.27-.25,18.55,1.21,27.62,3,24.75,4.77,49,12.35,72.76,20.68,19,6.67,38.31,13.65,56.2,23a61.32,61.32,0,0,1,6.87,4c5.3,3.68,10.3-5,5.05-8.64-5.81-4-12.52-6.91-19-9.78-10.75-4.79-21.71-9.15-32.74-13.26-25.3-9.44-51.17-17.87-77.54-23.78-11-2.47-22.24-4.59-33.53-5.13a74,74,0,0,0-36.21,8c-14.84,7.33-27,19.12-38.73,30.56-13.49,13.17-27.44,25.25-42,37.12-6.4,5.2-12.56,11.06-16.54,18.37-4.59,8.44-6.25,18.19-7.36,27.62-2.11,17.93-4.44,36.42.19,54.13C26.21,340.35,52,369.22,81.09,387,114.8,407.67,155.54,408.55,194,408.1s77.65-5,113.36-20.07c16.5-6.95,33.83-15.92,46.2-29.16,13.39-14.35,16.51-33.78,18.77-52.58,2.46-20.56,2-41.92-3.73-61.92-4.89-16.94-14.79-32-27.2-44.34a160.73,160.73,0,0,0-20.45-17C315.66,179.28,310.66,188,315.86,191.66Z"/>
  </g>
  <g>
    <path class="cls-3" d="M165.39,21.5C133.32,35.67,101,50,72.78,70.89s-52.17,49.16-61.44,83c-2.13,7.8-3.45,16.17-1.1,23.91,3.1,10.24,12.28,17.75,22.32,21.45s20.94,4.13,31.64,4.27c62.36.8,126.55-7.83,180.85-38.49"/>
    <path class="cls-1" d="M162.86,17.18c-58.18,25.71-123.2,56-150.13,118-6,13.75-12.28,31.2-6.59,46C11.43,194.92,25,203.22,38.9,206.24c16.39,3.56,34.07,2.55,50.72,2A471.53,471.53,0,0,0,140,204c37.56-5.26,74.4-16.1,107.6-34.69,5.62-3.15.58-11.79-5-8.64-55,30.79-119.7,39.22-181.9,37.75-14.43-.34-30.75-2-40.84-13.62-10.36-12-4.59-29.18.59-42.21,10.35-26,29.77-47.92,51.68-64.93,28.83-22.38,62.68-37.2,95.85-51.85,5.88-2.6.79-11.22-5-8.64Z"/>
  </g>
  <g>
    <path class="cls-1" d="M143.47,277.84c-7.12,5.16-16.75,10.43-24.06,5.55-6-4-6.45-13.19-2.89-19.48s10-10.36,16.08-14.18l8.84-5.5c1.21-.75,2.56-1.54,4-1.32,1.66.25,2.78,1.77,3.66,3.2a65.94,65.94,0,0,1,7.22,16.26c.71,2.43,1.26,5.09.29,7.43-1.16,2.79-4.13,4.31-6.87,5.58l-16.2,7.56c-6.86,3.2-15.54,6.23-21.43,1.47-3.83-3.09-4.92-8.72-3.68-13.48s4.42-8.8,7.91-12.27a64.69,64.69,0,0,1,22.46-14.48c3.62-1.38,7.64-2.43,11.33-1.24,4.19,1.36,7.05,5.44,8.15,9.71s.76,8.77.4,13.17"/>
    <path class="cls-1" d="M142.21,275.68c-6.47,4.59-20.4,12.81-24.74,1.22-3.16-8.45,3.52-16.13,9.87-20.73,3.5-2.55,7.27-4.74,10.94-7a33.86,33.86,0,0,1,4.42-2.75c3.89-1.57,4.46,1.22,6,4.07a52,52,0,0,1,5.57,14c1.25,6.23-4,7.86-8.53,10-7.87,3.66-18,10.63-27,9.86-5.14-.43-8.24-4.46-8.32-9.4-.07-5.21,3.12-9.7,6.52-13.34a60.2,60.2,0,0,1,22.51-15c5.56-2.09,11.56-2.67,15,3.21,2.79,4.8,2.15,10.73,1.73,16-.26,3.21,4.75,3.19,5,0,.72-9.11.3-22-10.39-25.29-9.22-2.87-20.87,4.31-28,9.46-7.67,5.51-16.63,13.49-17.29,23.6-.54,8.18,4.86,15.31,13.27,15.76,10.7.58,22.06-7,31.34-11.39,3.36-1.58,7-3.32,8.67-6.9,2.1-4.57-.08-10.07-1.74-14.43-2.32-6.08-6.74-19.52-15.57-15.28-4.86,2.33-9.55,5.76-14,8.73-4.21,2.79-8.32,5.9-11.34,10-5.11,6.95-6.44,18.07.59,24.32,8.54,7.6,20.44,1,28.09-4.4,2.61-1.84.11-6.18-2.52-4.32Z"/>
  </g>
  <g>
    <path class="cls-1" d="M277,267.14a72.56,72.56,0,0,1-21-5.63c-6-2.64-12.2-6.8-13.57-13.22-2-9.24,7.94-17.6,17.38-17.54s17.83,5.84,25.09,11.87c2.89,2.39,5.81,5,7.2,8.48A12,12,0,0,1,277.41,267"/>
    <path class="cls-1" d="M277,264.64c-9.29-1.16-20.5-3.72-27.72-10.09-8.41-7.41-3.22-18.1,6.54-20.74s19.54,4.2,26.71,10.05c4,3.26,8.48,7.1,7.8,12.79-.74,6.14-6.55,9.37-12.28,7.92-3.12-.78-4.45,4-1.33,4.82,12.18,3.08,23.4-9.39,16.9-21-3.31-5.9-9.94-10.42-15.52-14-5.95-3.81-13.08-6.78-20.27-6C247,229.5,236.17,240.2,241,251.57c5.32,12.64,24.12,16.57,36.07,18.07,3.19.39,3.16-4.61,0-5Z"/>
  </g>
  <path class="cls-1" d="M167.62,307.19A21,21,0,0,0,188.05,327c11.23.13,20.27-8.92,22.85-19.33.12-.46.95-2.61.75-3q-5-1.83-2.44.77l.78,1a24.06,24.06,0,0,0,6.58,5.33A42.13,42.13,0,0,0,233,316.51c11,1.12,23.73-4.89,23.38-17.51-.18-6.42-10.18-6.45-10,0,.28,10.39-15.06,7.82-21.17,5.7-4.57-1.58-6.53-4.17-9.64-7.49a7.22,7.22,0,0,0-9.11-1.43c-2.82,1.72-4.07,5-4.89,8-1.1,4-2.27,7.55-5.64,10.32-6.5,5.33-17.84,2.39-18.27-6.89-.3-6.41-10.3-6.44-10,0Z"/>
  <path class="cls-4" d="M89.6,323.69a21.64,21.64,0,0,0,8.32,8.88c2.77,1.65,5.29-2.67,2.52-4.31a16.81,16.81,0,0,1-6.52-7.1c-1.44-2.87-5.76-.35-4.32,2.53Z"/>
  <path class="cls-4" d="M110,316.94l6.93,8.34c2.06,2.48,5.58-1.07,3.54-3.53l-6.94-8.35c-2.06-2.47-5.58,1.08-3.53,3.54Z"/>
  <path class="cls-4" d="M292.54,295.84l5.25,9.88c1.51,2.85,5.83.32,4.32-2.52l-5.25-9.89c-1.51-2.84-5.83-.32-4.32,2.53Z"/>
  <path class="cls-4" d="M311.3,289.88a48,48,0,0,0,7.89,13.46c2.05,2.48,5.57-1.08,3.53-3.54a40.68,40.68,0,0,1-6.6-11.25c-1.15-3-6-1.68-4.82,1.33Z"/>
  <g>
    <path class="cls-5" d="M248.41,158.89c-25.41-7.89-52.64-17-68.11-38.69-8.45-11.82-12.43-26.19-15.86-40.32-3-12.37-5.72-25.08-4.43-37.74S167.23,16.67,178.1,10c16.64-10.16,38.55-2.95,54.68,8,35.08,23.81,57.72,65,59,107.39.26,8.52-.61,17.84-6.47,24-3.16,3.33-7.43,5.35-11.59,7.3-7.63,3.57-16.37,7.19-24.19,4.06"/>
    <path class="cls-1" d="M249.74,154.07c-23.88-7.43-51.33-15.94-66.08-37.77-8.16-12.09-11.75-26.52-15.06-40.54-3.48-14.71-6.37-30.66-.74-45.23,5-12.88,16.12-20.84,30-20.34,13.74.5,26.63,7.62,37.36,15.72,21.14,16,37.05,38.9,45.24,64,4.42,13.56,7.5,28.78,6.16,43.1-.75,8-4.12,13.6-11.27,17.36s-16.19,8.41-24.49,5.58c-6.11-2.08-8.73,7.57-2.66,9.64,7.93,2.71,15.87.69,23.35-2.47,7.21-3,14.8-6.36,19.5-12.9,8.66-12,6.11-30,3.81-43.67a142.78,142.78,0,0,0-43-79.69C231.3,7.75,194.5-13,169.37,10.47,158,21.12,154,37.49,154.79,52.59c.86,17.57,5.57,36.44,12.07,52.78A78.84,78.84,0,0,0,199,143.89c14.75,9.26,31.6,14.68,48.12,19.82,6.16,1.91,8.79-7.74,2.66-9.64Z"/>
  </g>
  <g>
    <path class="cls-1" d="M247.45,175.46c-4.36-18.06,5.23-37,18.71-49.8,4.62-4.38,9.78-8.3,15.68-10.68,17.23-6.94,38.35,1.49,48.56,17s10.37,36.28,3.23,53.43a17.74,17.74,0,0,1-4,6.43c-3.76,3.46-9.43,3.59-14.53,3.32-22.93-1.22-65.76-11.55-66.71-15.63"/>
    <path class="cls-1" d="M249.86,174.79c-4.39-20,8-40.4,23.63-52.13,15.13-11.33,35.25-9.21,48.86,3.64,14.47,13.67,16.56,35.83,10.54,54-2,6.15-4.39,11.47-11.54,12.35a55,55,0,0,1-11.68-.37c-7.4-.72-14.75-1.94-22-3.35-8.16-1.57-16.28-3.4-24.26-5.69-3-.84-5.92-1.73-8.79-2.85-.9-.35-1.76-.8-2.65-1.16s-1.52-1.39-1.12-.33c-1.12-3-6-1.69-4.82,1.33,1.47,3.9,7.8,5.26,11.25,6.38a233.39,233.39,0,0,0,25.13,6.36,262.23,262.23,0,0,0,27.3,4.31c9.24.9,19.69,1.47,24.83-7.79,10.3-18.55,8.88-45.42-4.37-62.06-12.18-15.3-34.5-22.31-52.44-13.27C256.17,125,239.74,152,245,176.12c.69,3.15,5.51,1.82,4.82-1.33Z"/>
  </g>
</svg>
