<svg id="レイヤー_1" data-name="レイヤー 1" xmlns="http://www.w3.org/2000/svg" viewBox="0 0 493.55 185.59">
  <defs>
    <style>
      .cls-1 {
        fill: #f5e828;
      }

      .cls-2 {
        fill: #e89213;
      }

      .cls-3 {
        fill: #e7280f;
      }

      .cls-4, .cls-7 {
        fill: #5f463c;
      }

      .cls-4 {
        opacity: 0.31;
      }

      .cls-5 {
        fill: #beb51f;
      }

      .cls-6 {
        fill: #b51b03;
      }

      .cls-7 {
        opacity: 0.14;
      }

      .cls-8 {
        fill: #acaaa6;
      }

      .cls-9 {
        fill: #d8d6d6;
      }

      .cls-10 {
        fill: #b02059;
      }

      .cls-11, .cls-17 {
        fill: #fff;
      }

      .cls-12 {
        fill: #bdbdbc;
      }

      .cls-13 {
        fill: #907d7d;
      }

      .cls-14 {
        fill: #2f2725;
      }

      .cls-15 {
        fill: #231815;
      }

      .cls-16 {
        fill: none;
      }

      .cls-17 {
        stroke: #fff;
        stroke-miterlimit: 10;
      }

      .cls-18 {
        fill: #cd9abf;
      }

      .cls-19 {
        fill: #261c19;
      }

      .cls-20 {
        fill: #842a82;
      }
    </style>
  </defs>
  <title>横ロゴ2019</title>
  <g>
    <path class="cls-1" d="M486.57,143.61a4.12,4.12,0,0,1-3.9,3.62,4.49,4.49,0,0,1,0-8.92,2.73,2.73,0,0,1,.41,0c-.79-.91-3.46-3.14-9.4-.89-7.3,2.76-8.93-1.92-8.93-1.92s-1.23,4.39,2.47,5.87a5.19,5.19,0,0,1-3.38-1.68c-1.06-1.48,3,14.77,13.17,12.11a3.67,3.67,0,0,1-1.93,1.07S488.68,154,486.57,143.61Z"/>
    <path class="cls-2" d="M476.22,153.69c-.68,0-1.13,0-1.2,0l-6.17-.51,3.62-.58c-5-1.42-7.77-7.25-8.62-9.39-1.45-3.68-.83-4-.5-4.2a.81.81,0,0,1,.69,0,6.9,6.9,0,0,1,0-3.62l.65-2.3.78,2.26a3.68,3.68,0,0,0,1.88,1.86c1.51.69,3.56.56,6.07-.39,6.3-2.39,9.26,0,10.24,1.09l1.27,1.46-1.92-.22-.33,0a3.75,3.75,0,0,0,0,7.42,3.38,3.38,0,0,0,3.16-3l.67-4,.8,4c.59,2.87.1,5.21-1.45,7C483.27,153.32,478.47,153.69,476.22,153.69Zm3-3.2-1.43,1.63c2.2-.17,5.27-.77,7-2.7a5.24,5.24,0,0,0,1.26-2.95,4.47,4.47,0,0,1-3.32,1.51,5,5,0,0,1-4.71-5.21,5.18,5.18,0,0,1,3.24-4.94c-1.34-.68-3.61-1.06-7.26.32-2.92,1.11-5.37,1.22-7.27.33a5.73,5.73,0,0,1-1.36-.9,3.43,3.43,0,0,0,2.19,3.12l4.67,1.87-5-.43a6.88,6.88,0,0,1-2.31-.67c.71,2.18,2.36,5.88,5.2,8.14a7.41,7.41,0,0,0,6.78,1.49Z"/>
  </g>
  <g>
    <path class="cls-1" d="M483.08,138.34a2.73,2.73,0,0,0-.41,0,4.49,4.49,0,0,0,0,8.92,4.12,4.12,0,0,0,3.9-3.62,5.71,5.71,0,0,0,.07-.84A4.3,4.3,0,0,0,483.08,138.34Z"/>
    <path class="cls-2" d="M482.67,148a5.24,5.24,0,0,1,0-10.42,4.19,4.19,0,0,1,.5,0,5,5,0,0,1,4.22,5.18,6.22,6.22,0,0,1-.08,1A4.87,4.87,0,0,1,482.67,148Zm0-8.92a3.75,3.75,0,0,0,0,7.42,3.38,3.38,0,0,0,3.16-3,4.25,4.25,0,0,0,.06-.71,3.54,3.54,0,0,0-2.89-3.69h0Z"/>
  </g>
  <path class="cls-2" d="M481,144.46l-.38-2c0-.08-1.43-7.43-5.23-12l-1.63-2,2.32-1.11a40.67,40.67,0,0,1,8.31-2.89,11.35,11.35,0,0,1,5.28,0c3.57.88,3.73,3,3.81,4.19.3,4.44-1.09,13.36-10.47,15.39ZM480,130a35.78,35.78,0,0,1,4,9.54c6.37-2.64,5.92-10.21,5.89-10.56v-.11a2.53,2.53,0,0,0-1.22-.54,7.37,7.37,0,0,0-3.43,0A36.14,36.14,0,0,0,480,130Z"/>
  <path class="cls-1" d="M491.73,129.53c0-1.42-1.39-2.11-2.74-2.44a9.4,9.4,0,0,0-4.35,0,38.86,38.86,0,0,0-7.9,2.75c4.19,5.06,5.65,12.92,5.65,12.92C492.59,140.57,491.73,129.53,491.73,129.53Z"/>
  <path class="cls-3" d="M484.64,127.11a40.11,40.11,0,0,0-4,1.15h0c2.73,1.94,3.64,8.81,3.64,8.81,3.3-3.06,3.7-9.61,3.63-10.17A9.8,9.8,0,0,0,484.64,127.11Z"/>
  <path class="cls-2" d="M67.28,185.59c-5.82,0-13.22-.58-18.91-3a1.51,1.51,0,0,1-.86-1.76,8.68,8.68,0,0,1-1.15-4.08c-.2-5,3.25-10.73,10.23-17.06.33-.3,8.69-8.1,26.19-14.85a1.5,1.5,0,0,1,1.39.16c6.15,4.28,19.54,12.94,40.19,22.88a1.46,1.46,0,0,1,.85,1.35,1.49,1.49,0,0,1-.85,1.35c-1.18.56-29,13.72-47.65,14.51A88,88,0,0,1,67.28,185.59Zm-16.4-5.24c10.08,3.58,25.37,1.78,25.53,1.76h.12c14.61-.6,36-9.5,43.66-12.91a297.22,297.22,0,0,1-37.07-21.26c-16.39,6.46-24.41,13.9-24.49,14-7.8,7.06-9.35,11.85-9.28,14.64A5.3,5.3,0,0,0,50.88,180.35Z"/>
  <path class="cls-1" d="M50,181.59s-.41-.12-1-.37c10.51,4.46,27.63,2.38,27.63,2.38,18.53-.76,47.12-14.36,47.12-14.36-20.82-10-34.31-18.76-40.39-23C65.9,153,57.6,160.82,57.6,160.82,41.72,175.19,50,181.59,50,181.59Z"/>
  <path class="cls-3" d="M48,174.82c7.49,3.17,26.22,7.45,60.19-6.1a350.64,350.64,0,0,1-31.89-19.5c-12.63,5.86-18.69,11.6-18.69,11.6C50.93,166.85,48.53,171.48,48,174.82Z"/>
  <g>
    <path class="cls-1" d="M122.27,162.11h0s-5.82.31-4.9,5.75S127,171,127,171h0A10,10,0,0,1,122.27,162.11Z"/>
    <path class="cls-2" d="M123.13,172.22a8.23,8.23,0,0,1-4.45-1.07,4.51,4.51,0,0,1-2.06-3.18,5.37,5.37,0,0,1,.94-4.41,7,7,0,0,1,4.66-2.21l.48,0,.32.61v.22a9.31,9.31,0,0,0,4.41,8.2l.18.11.5,1-.89.24A17.33,17.33,0,0,1,123.13,172.22ZM121.52,163a4.86,4.86,0,0,0-2.79,1.54,3.93,3.93,0,0,0-.63,3.21,3,3,0,0,0,1.39,2.17c1.58,1,4.1.9,5.74.67A10.74,10.74,0,0,1,121.52,163Z"/>
  </g>
  <g>
    <path class="cls-1" d="M158.69,155.26c-.29,0-1.14-1.43-1.37-1.7-.44-.51-.89-1-1.36-1.51a30.52,30.52,0,0,0-2.72-2.49c-4.83-3.85-10.82-5.08-16.61-2.77a25.24,25.24,0,0,0-6.47,3.9c-2.41,2-5.16,4.35-6.69,7.2a10.59,10.59,0,0,0-.79,1.87,9.36,9.36,0,0,0-.41,2.35A10,10,0,0,0,127,171a10.39,10.39,0,0,0,2.61,1.22,21,21,0,0,0,8.35.65,10.49,10.49,0,0,0,4.08-.84.69.69,0,0,0-.32,0c-3,.37-4.92-4-4.92-4,12.42,6.32,22.55-9.07,22.55-9.07l-10-4.8Z"/>
    <path class="cls-2" d="M135.26,173.74a19.51,19.51,0,0,1-5.85-.82,11.26,11.26,0,0,1-2.79-1.31,10.82,10.82,0,0,1-5.1-9.53,10.46,10.46,0,0,1,.44-2.54,12,12,0,0,1,.85-2c1.55-2.88,4.22-5.27,6.88-7.42a26,26,0,0,1,6.66-4c5.82-2.32,12.14-1.27,17.36,2.88a31,31,0,0,1,2.79,2.56c.48.5.94,1,1.39,1.55a5.45,5.45,0,0,1,.37.51,9,9,0,0,0,.77,1,.54.54,0,0,0-.25-.09l-.09,1.49h-.15l-4.75-.58,6.69,3.2-.47.72c-.1.15-9.47,14.12-21.33,10.24a3.58,3.58,0,0,0,3,1.68,1.5,1.5,0,0,1,.62,0l1.65.47-1.47.89a9.15,9.15,0,0,1-3.83.89l-.57.06C137.1,173.69,136.16,173.74,135.26,173.74Zm7.29-27.35a15.05,15.05,0,0,0-5.64,1.1,24.51,24.51,0,0,0-6.28,3.78c-2.53,2.06-5.07,4.32-6.5,7a10.31,10.31,0,0,0-.74,1.74,9,9,0,0,0-.37,2.17,9.31,9.31,0,0,0,4.41,8.2,10.53,10.53,0,0,0,2.43,1.14,20.13,20.13,0,0,0,8,.61l.59,0,.57-.05a9.78,9.78,0,0,1-2.93-3.7l-.85-1.93,1.88,1c10.18,5.18,18.93-5.24,21.08-8.11l-13.36-6.39,12,1.46-.18-.24c-.43-.51-.87-1-1.33-1.48a27.69,27.69,0,0,0-2.65-2.42A16.34,16.34,0,0,0,142.55,146.39Z"/>
  </g>
  <path class="cls-4" d="M213.61,150.82s-63.85-22-114.32-8.49a132.46,132.46,0,0,0-14.57,4.88c2.85,1.94,6.91,4.58,12.14,7.69C122.33,143.09,160.82,135.37,213.61,150.82Z"/>
  <path class="cls-5" d="M49.65,175.46c-.12,6.17,8,8,8.51,8.07h0a61.45,61.45,0,0,1,5-5.57A46.83,46.83,0,0,1,49.65,175.46Z"/>
  <path class="cls-5" d="M77.73,150.21c4.35,3,8.57,5.67,12.41,8q3.19-1.72,6.72-3.36c-5.23-3.11-9.29-5.75-12.14-7.69C82.5,148.09,80.14,149.09,77.73,150.21Z"/>
  <path class="cls-6" d="M49.65,175.46A46.83,46.83,0,0,0,63.22,178a115.5,115.5,0,0,1,26.92-19.71c-3.84-2.38-8.06-5.09-12.41-8-7.83,3.63-16.22,8.54-22.21,14.74C51.23,169.4,49.69,172.83,49.65,175.46Z"/>
  <path class="cls-7" d="M475.59,132.2c.84-.19,1.67-.34,2.51-.47l-.43-.63C476.4,131.73,475.59,132.2,475.59,132.2Z"/>
  <path class="cls-5" d="M481.74,129.42a38.15,38.15,0,0,0-4.07,1.68l.43.63a36.6,36.6,0,0,1,4.67-.39A9.73,9.73,0,0,0,481.74,129.42Z"/>
  <path class="cls-5" d="M491.49,132a4,4,0,0,0-3.65-3.59,21,21,0,0,1-.58,3.08A41.43,41.43,0,0,1,491.49,132Z"/>
  <path class="cls-6" d="M486,128.39a23.54,23.54,0,0,0-4.27,1,9.73,9.73,0,0,1,1,1.92c1.66,0,3.19,0,4.49.11a21,21,0,0,0,.58-3.08A7.06,7.06,0,0,0,486,128.39Z"/>
  <path class="cls-2" d="M491.78,120c0-.55-3.85-5.09-9.45-7.86a187.11,187.11,0,0,0-20-8.46c-10.06-3.53-14.47-6.31-14.51-6.34a2,2,0,0,0-.32-.17c-.05,0-5.15-2.3-12.5-13.89l-.07-.11c-.51-.69-3.07-4.18-3.67-4.87l-.58-.67-.1-.11c-7.33-7.93-15.74-8.8-16.76-8.88-14.27-1.89-28.16,5-29.32,5.62-66.61,29.4-106.19,16.18-123.09,10.53-1.68-.56-3.13-1-4.41-1.42-12-3.56-28.49-10.89-53.52-22q-6.36-2.84-13.49-6c-36.44-16.12-79.3-24.65-109.2-21.75C49.7,36.66,27.27,46,14.16,61.35S.36,87.16,1,93.65A24.67,24.67,0,0,0,7.16,107l.06.07c1,1.12,2.07,2.19,2.12,2.23A130.72,130.72,0,0,0,22.2,119.72c7.43,5.36,10.38,10.2,10.4,10.24l.15.22c.07.09,6.87,9,5.41,28.14,0,.25-.38,6.09-.32,8.54v0a7.07,7.07,0,0,0,.09,1.12c.06.7.15,1.65.26,2.52a1.94,1.94,0,0,0,.26.79c1.9,9.16,10.66,11.59,11,11.69,4.1,1.5,9.85.66,9.85.66-4.4-.21-8.09-4.15-8.09-4.15A4.84,4.84,0,0,1,49.85,176c-.05-2.68,1.48-7.31,9.12-14.23.13-.12,13.21-12.22,40.32-19,25.07-6.24,67.62-9,128,13.07l43.07,13.77c.26.07,25.61,7,65.25,6.8,32.72-.13,61-3,92.94-16.66,6.45-2.75,18.35-9.53,21.83-11.53.59-.34,14.61-8.27,22.07-14a33.74,33.74,0,0,1,12.64-5.72,6.62,6.62,0,0,1,3.42,0,4.12,4.12,0,0,1,3,4.75C494.73,134.81,493.62,122.6,491.78,120Zm-2.31,4.66a11.22,11.22,0,0,0-5.28,0A37.92,37.92,0,0,0,470,131.11c-7.23,5.54-21.45,13.59-21.61,13.68-3.45,2-15.18,8.67-21.42,11.34-31.28,13.37-59.16,16.2-91.39,16.33-39,.18-63.91-6.59-64.08-6.64l-42.93-13.71C167.15,129.62,123.67,132.57,98,139c-28,7-41.23,19.33-41.75,19.82-7.1,6.43-10.6,12.3-10.4,17.45a1.77,1.77,0,0,0,0,.23,10.93,10.93,0,0,1-3.66-6.94,2.56,2.56,0,0,0-.05-.27A2,2,0,0,0,42,169c-.06-.54-.1-1.05-.14-1.46a1.37,1.37,0,0,0,0-.28c0-.11,0-.26,0-.43v0c-.06-2.28.31-8.14.31-8.17,1.51-19.85-5.28-29.6-6.18-30.79-.52-.84-3.82-5.84-11.43-11.33a132.2,132.2,0,0,1-12.4-10s-1-1-1.92-2l0,0a1.54,1.54,0,0,0-.17-.19,20.91,20.91,0,0,1-5-11C4.36,87,5.2,78,17.2,64c12.24-14.35,34.38-23.45,64-26.34,29.26-2.84,71.34,5.57,107.2,21.43l13.48,6c25.17,11.17,41.79,18.56,54,22.18,1.2.36,2.62.83,4.27,1.38,17.35,5.8,58,19.37,126-10.69l.11,0c.14-.07,13.7-7,27.07-5.23l.15,0A23.24,23.24,0,0,1,427.48,80a1.58,1.58,0,0,0,.28.3l.53.61c.35.4,2.19,2.88,3.41,4.55,7.47,11.78,12.92,14.76,14.15,15.32.89.54,5.55,3.27,15.19,6.66a183.86,183.86,0,0,1,19.42,8.22,23.07,23.07,0,0,1,7.74,6.22l.08.1.05.06a3.16,3.16,0,0,1,.28.39,2.62,2.62,0,0,0,.46.48,3.43,3.43,0,0,1,.59,1.78Z"/>
  <path class="cls-1" d="M7.78,101.61V97.94S8.47,71.86,36.34,54.5s63.9-14.11,63.9-14.11,6.74-.57,29.06,3.15,54.15,16.12,54.15,16.12L221.6,75.24s10.25,4,29.15,10.65a215.52,215.52,0,0,0,38.1,9.19,145.43,145.43,0,0,0,32.25,1.37c17.74-1.24,26.5-4.08,29.84-5s14-4.42,14-4.42l10.23-3.83,15-6a74.1,74.1,0,0,1,12.22-3.44c5-1.11,11.89-.54,11.89-.54a34.18,34.18,0,0,1,5.73.93,27.6,27.6,0,0,1,7,2.72,20.11,20.11,0,0,1,2.11,1.43l.09.07h0c-7.18-7.8-15.51-8.27-15.51-8.27-14.16-1.9-28.26,5.43-28.26,5.43C311.57,108.16,270.6,89,256.47,84.77s-34.34-13.51-67.25-28.06S112.9,32,81,35.12,27.73,48,15.68,62.15,2.29,85.88,3,93a22.78,22.78,0,0,0,5.64,12.2h0C7.71,104,7.78,101.61,7.78,101.61Z"/>
  <path class="cls-3" d="M489.82,120.22v0a25.05,25.05,0,0,0-8.39-6.78,185.47,185.47,0,0,0-19.71-8.36c-10.48-3.68-14.93-6.55-14.93-6.55s-5.49-2.14-13.43-14.67c0,0-3-4.08-3.55-4.73l-.6-.69a.52.52,0,0,0-.12-.1A20.11,20.11,0,0,0,427,76.89a27.6,27.6,0,0,0-7-2.72,34.18,34.18,0,0,0-5.73-.93s-6.9-.57-11.89.54a74.1,74.1,0,0,0-12.22,3.44l-15,6-10.23,3.83s-10.63,3.54-14,4.42-12.1,3.71-29.84,5a145.43,145.43,0,0,1-32.25-1.37,215.52,215.52,0,0,1-38.1-9.19c-18.9-6.65-29.15-10.65-29.15-10.65L183.45,59.66S151.62,47.27,129.3,43.54s-29.06-3.15-29.06-3.15-36-3.26-63.9,14.11S7.78,97.94,7.78,97.94v3.67s-.07,2.54.92,3.63,2,2.12,2,2.12A129.73,129.73,0,0,0,23.37,117.6c7.92,5.72,11,10.84,11,10.84S41.7,137.7,40.15,158c0,0-.37,6-.31,8.37h0v0a6.29,6.29,0,0,0,.06.85h0c.06.7.15,1.71.26,2.63,0-1.53,1.1-6.57,12.26-17.27a82.36,82.36,0,0,1,9.78-7.2h0c.52-.33,1.06-.65,1.6-1h0c14.89-9,38.07-17.14,73.07-17.16a224,224,0,0,1,68.66,11c14.13,4.55,33.27,11.21,53.81,19.79,42.38,17.71,117.88,9.21,117.88,9.21s39-3.54,76.5-28.89c0,0,21.5-14.81,29.5-17.13a10.22,10.22,0,0,1,2.62-.35h.25a11.78,11.78,0,0,1,3.65.72l.07,0,.08,0a3.33,3.33,0,0,1,1.57,2.43h0A7.72,7.72,0,0,0,489.82,120.22Z"/>
  <path class="cls-1" d="M489.9,121.6l-.15-.06a11.78,11.78,0,0,0-3.65-.72,10.13,10.13,0,0,0-2.87.35c-8,2.32-29.5,17.13-29.5,17.13-37.5,25.35-76.5,28.89-76.5,28.89s-75.5,8.5-117.88-9.21c-20.54-8.58-39.68-15.24-53.81-19.79a224,224,0,0,0-67.74-11l-9.62.17a174.3,174.3,0,0,0-27.77,3.28c-15.2,3.22-28.24,8.5-38.19,14.68a61.54,61.54,0,0,0-9.79,7.2c-13.76,13.2-12.2,17.79-12.2,17.79,1.16,9,9.78,11.26,9.78,11.26s-8.29-6.4,7.59-20.77c0,0,52.3-49.54,170.3-6.33l43,13.74s24.9,6.9,64.7,6.73c33.75-.14,61.13-3.23,92.17-16.5,6.26-2.67,17.9-9.29,21.63-11.43,0,0,14.4-8.14,21.83-13.84a36.1,36.1,0,0,1,13.41-6.08,9.4,9.4,0,0,1,4.35,0,3.83,3.83,0,0,1,2.83,1.77S492.42,122.66,489.9,121.6Z"/>
  <g>
    <path class="cls-1" d="M36,73.16a58.11,58.11,0,0,1-1.41,15.59L48.43,136.8c.7,2.41.58,3.88-.34,4.43q-1.56.15-2.61-3.47L32.85,94a40.8,40.8,0,0,1-2.75,6.3q-2.59,4.1-4.06-6.59a44.73,44.73,0,0,0,8.77-20.88Zm22.54,42.68a58.19,58.19,0,0,0,19.32,4.47,58.64,58.64,0,0,0,20.43-3.81l.87,1.16q-3.44,10.49-11.76,9.61a74.29,74.29,0,0,1-29.08-8.48,46.49,46.49,0,0,1-4.33,13q-2.69,3.76-6.81-.29l-.14-1.4a20.79,20.79,0,0,0,7.91-12.67l-5.75-3.16-1.09,6.48q-1.55,3-4.13-4l3.53-5.48,1-.32,6.93,3.49a36,36,0,0,0-1.07-11.17,26.38,26.38,0,0,0-5.26,1.36q-5.44,5.39-3.06-2.24l2.71-12.05a22.09,22.09,0,0,0-7.38,2.42Q38,92.3,40.05,89.12a33.41,33.41,0,0,1,9.1-3q6.18-.94,2.8,4.12l-2.69,10.25a37.67,37.67,0,0,1,6-1.61q4.91.19,2.16,4.7A79.69,79.69,0,0,1,58.52,115.84Zm0-5.42c-.37-1.32-.1-2.24.81-2.79a72.13,72.13,0,0,1,12.16-5.42L70,96.94a78.3,78.3,0,0,0-8.41,3.48q-3.33-.35-1.29-3.54A83.25,83.25,0,0,1,69,93.32l-1.14-3.94a76,76,0,0,0-8.42,3.47q-3.33-.34-1.29-3.54a81.55,81.55,0,0,1,8.66-3.55l-1.33-4.61Q61,82.61,54.59,85.43c-.59.44-1.24,0-2-1.16-.38-1.32-.16-2.11.66-2.38Q60,79,64.42,77.53l-1.14-4a73.61,73.61,0,0,0-8.41,3.48q-3.33-.34-1.29-3.54A81.06,81.06,0,0,1,62.23,70L60.72,64.7a1.94,1.94,0,0,1,.9-2.46,1.78,1.78,0,0,1,2,1.49L65.18,69a54.5,54.5,0,0,1,7.32-1.68q4.22-.3,2.81,4.12l.85,3a31.83,31.83,0,0,1,7.41-1.35q1.82-.22,1.5,2.4c-.7,1.91-1.61,2.81-2.72,2.69a17.19,17.19,0,0,0-5,.21l1.24,4.28q3.76,5.61-1.91,4.59a32.88,32.88,0,0,0-5.84,1.19l1.14,4a73,73,0,0,1,8.54-2.08c2.25.94,2.52,2.18.8,3.7A62.35,62.35,0,0,0,73,96l1.52,5.26a76.14,76.14,0,0,1,15.22-3.18q2.9-.24,1.94,3a4.2,4.2,0,0,1-3.8,2.69,29.28,29.28,0,0,0-12.22,1.48l2.85,9.87c.7,2.42.58,3.89-.34,4.44q-1.56.15-2.61-3.47l-2.85-9.87a62.25,62.25,0,0,0-11.57,5.59C60,112.13,59.12,111.68,58.57,110.42Zm8.8-33.86L73.12,75l-1.05-3.62a31.9,31.9,0,0,0-5.84,1.2Zm1,3.62,1.33,4.61a33,33,0,0,1,5.85-1.19l-1.43-4.94Z"/>
    <path class="cls-2" d="M48.29,141.9l-.12,0c-1.38.13-2.49-1.2-3.29-4L32.78,96a32.6,32.6,0,0,1-2.16,4.7c-.72,1.13-1.46,1.59-2.2,1.38-1-.27-2.06-1.47-3-8.29l0-.3.17-.23a44.16,44.16,0,0,0,8.64-20.55l.1-.74,2.28.65,0,.5a58.55,58.55,0,0,1-1.4,15.62l11.7,40.54a20.22,20.22,0,0,0,7.3-11.54l-4.56-2.5-1,5.81c-.46.89-1,1.31-1.68,1.24-1.15-.11-2.26-1.77-3.58-5.4l-.13-.35,3.85-6,1.41-.46,6.32,3.19a35.26,35.26,0,0,0-1-9.38,34.18,34.18,0,0,0-4.47,1.23c-2.13,2.09-3.33,2.69-4.15,2.08s-.78-2.12.17-5.18l2.47-11a22,22,0,0,0-6.26,2.2l-.15.08H41.3a2.72,2.72,0,0,1-2.49-1.41c-.36-.85-.12-1.9.73-3.23l.09-.15.15-.08a34.51,34.51,0,0,1,9.25-3c2.5-.37,3.92-.07,4.5,1,.69,1.26-.22,3-1,4.14l-2.34,8.9a33.24,33.24,0,0,1,5-1.26c2,.07,3.14.6,3.63,1.63s.23,2.28-.72,3.91q.3,1.84.51,3.63a2.9,2.9,0,0,1,.5-.37,75.54,75.54,0,0,1,11.68-5.28l-1.14-3.93a78.27,78.27,0,0,0-7.75,3.25l-.15.07-.15,0a2.73,2.73,0,0,1-2.49-1.4c-.36-.85-.12-1.91.72-3.24l.1-.15.16-.08c3.19-1.48,5.93-2.62,8.13-3.38l-.75-2.62a78.32,78.32,0,0,0-7.76,3.25l-.14.07-.16,0a2.71,2.71,0,0,1-2.48-1.4c-.37-.85-.13-1.91.72-3.23l.1-.16.16-.07A86.36,86.36,0,0,1,66,85.29l-1-3.28c-2.79.95-6.21,2.31-10.17,4a1.32,1.32,0,0,1-1.08.21c-.58-.14-1.13-.67-1.69-1.62l-.07-.17a3.73,3.73,0,0,1-.13-2,1.74,1.74,0,0,1,1.19-1.24c4.12-1.79,7.67-3.2,10.52-4.17l-.75-2.61a78.32,78.32,0,0,0-7.76,3.25l-.14.06h-.16c-1.32-.14-2.14-.6-2.48-1.41s-.13-1.9.72-3.23l.1-.15.16-.08a85.93,85.93,0,0,1,8.13-3.38l-1.33-4.61a2.64,2.64,0,0,1,1.2-3.26l.1-.07h.13a2.43,2.43,0,0,1,2.71,2l1.33,4.6a62,62,0,0,1,6.8-1.51c1.7-.12,2.79.26,3.41,1.15s.65,2.06.17,3.69l.6,2.08a33.24,33.24,0,0,1,7-1.19h0a1.82,1.82,0,0,1,1.66.55,3.3,3.3,0,0,1,.5,2.64l0,.17c-.81,2.21-1.94,3.25-3.34,3.11a16.36,16.36,0,0,0-4.19.09l1,3.4C80.56,84.52,81,86,80.44,87c-.67,1.25-2.47,1.11-3.81.87a36.55,36.55,0,0,0-5,1l.75,2.61a79.55,79.55,0,0,1,8-1.9l.17,0,.16.07c1.41.59,2.16,1.33,2.3,2.24a3,3,0,0,1-1.31,2.65l-.12.11-.16,0a66.41,66.41,0,0,0-7.63,1.79l1.13,3.94a77.1,77.1,0,0,1,14.74-3,2.54,2.54,0,0,1,2.48.86,3.45,3.45,0,0,1,.13,3,4.83,4.83,0,0,1-4.35,3.14,28.7,28.7,0,0,0-11.47,1.27l2.65,9.2c.66,2.26.63,3.85-.06,4.75a59.35,59.35,0,0,0,19-3.78l.4-.14,1.39,1.83-.12.38c-2.39,7.28-6.55,10.66-12.39,10a74.8,74.8,0,0,1-28.58-8.18,47.09,47.09,0,0,1-4.25,12.31,4.42,4.42,0,0,1-3.16,2.14A5,5,0,0,1,48,133l1,3.56c.3,1,1.21,4.16-.62,5.24ZM32.92,92l13.16,45.6c.31,1.09,1,2.88,1.82,3,.66-.59.25-2.45-.07-3.55L33.92,88.77l0-.19A59.13,59.13,0,0,0,35.39,73.7l-.06,0A45.78,45.78,0,0,1,26.7,93.92c.88,6.2,1.82,6.77,2,6.82s.42-.11.88-.84a40.35,40.35,0,0,0,2.69-6.18Zm14.83,39.15c1.31,1.23,2.48,1.81,3.47,1.73a3.16,3.16,0,0,0,2.25-1.55,45.91,45.91,0,0,0,4.22-12.66l.15-.84.71.37a74,74,0,0,0,28.86,8.41c5.2.55,8.8-2.33,11-8.8l-.35-.47A59.7,59.7,0,0,1,77.85,121a59.34,59.34,0,0,1-19.53-4.52l-.42-.17v-.49a79.62,79.62,0,0,0-1.1-12.13l0-.27.14-.23c.76-1.24,1-2.21.79-2.73s-1.1-.82-2.44-.87a39.08,39.08,0,0,0-5.79,1.57l-1.12.37,3.11-11.7c1-1.52,1.19-2.39,1-2.71-.07-.12-.54-.71-3.21-.31a33.58,33.58,0,0,0-8.78,2.85c-.68,1.13-.58,1.59-.53,1.7.12.28.58.48,1.28.58a22.94,22.94,0,0,1,7.4-2.4l.93-.13-2.94,13.06c-.9,2.9-.69,3.56-.66,3.64s.65-.08,2.7-2.11l.1-.1.13,0a25.75,25.75,0,0,1,5.4-1.39l.52,0,.13.55A37,37,0,0,1,56,114.42l-.08,1-7.51-3.78-.56.18-3.21,5c1.48,4,2.28,4.15,2.37,4.15s.25-.11.45-.47l1.22-7.24L55.65,117l-.11.53a21.46,21.46,0,0,1-7.86,12.85Zm11.39-15.76a58.62,58.62,0,0,0,17.45,4.19,7.76,7.76,0,0,1-1.66-3.33L72.28,107a65.21,65.21,0,0,0-10.86,5.34l-.12,0A2.33,2.33,0,0,1,59,112.1C59.09,113.21,59.13,114.29,59.14,115.36ZM73.08,105.3l3,10.53c.32,1.1,1,2.89,1.82,3,.67-.59.26-2.46-.06-3.55l-3-10.54.6-.19A29.86,29.86,0,0,1,87.89,103a3.57,3.57,0,0,0,3.2-2.32,2.23,2.23,0,0,0,0-1.64c-.19-.26-.67-.37-1.36-.31a75.13,75.13,0,0,0-15.09,3.16l-.59.19-1.91-6.59.6-.2a64,64,0,0,1,8.21-2c.54-.49.81-.94.76-1.24,0-.13-.17-.57-1.33-1.09a72.73,72.73,0,0,0-8.3,2l-.6.2L70,87.94l.6-.19a32.35,32.35,0,0,1,5.94-1.22h.18c1.69.31,2.47.09,2.64-.22.06-.12.31-.85-1.32-3.28l-.1-.2-1.45-5,.69-.13a18.3,18.3,0,0,1,5.21-.22c.8.09,1.49-.66,2.07-2.2.11-1-.07-1.29-.15-1.38a.74.74,0,0,0-.65-.13,30.79,30.79,0,0,0-7.31,1.33l-.59.19-1.11-3.85.07-.21a3.23,3.23,0,0,0,.09-2.6C74.4,68,73.36,68,72.56,68a52.29,52.29,0,0,0-7.18,1.65l-.6.19-1.71-5.92c-.21-.74-.58-1-1.25-1a1.23,1.23,0,0,0-.51,1.58L63,70.43l-.59.2A81.27,81.27,0,0,0,54,74.08c-.68,1.12-.57,1.58-.52,1.7s.58.48,1.29.57a75.8,75.8,0,0,1,8.33-3.43l.59-.2L65.2,78l-.59.19c-2.92,1-6.64,2.42-11.07,4.35-.31.11-.39.24-.42.37A2.08,2.08,0,0,0,53.21,84c.47.77.76.9.84.92a.22.22,0,0,0,.19-.06l.11-.06c4.3-1.89,8-3.34,10.92-4.3l.6-.2,1.71,5.94-.6.19a79.45,79.45,0,0,0-8.43,3.46C57.87,91,58,91.45,58,91.57c.12.28.59.48,1.29.58a77,77,0,0,1,8.34-3.44l.59-.19,1.52,5.27-.59.2a79.45,79.45,0,0,0-8.43,3.46c-.69,1.11-.58,1.57-.53,1.69s.58.48,1.29.57a75.8,75.8,0,0,1,8.33-3.43l.6-.19,1.9,6.59-.6.19a73,73,0,0,0-12.06,5.38c-.44.26-.85.7-.51,1.93.39.89.91,1.16,1.7.92a63,63,0,0,1,11.63-5.6ZM69.34,85.65l-1.72-6,6.95-1.84,1.84,6.35-.74.09a33,33,0,0,0-5.74,1.17Zm-.13-5,.94,3.25A35.1,35.1,0,0,1,74.76,83l-1-3.52ZM67,77.39l-1.51-5.24L66,72A34.12,34.12,0,0,1,72,70.73l.53-.06,1.4,4.88ZM67,73.1l.76,2.64,4.54-1.2-.68-2.36A32.94,32.94,0,0,0,67,73.1Z"/>
  </g>
  <path class="cls-1" d="M115.32,95.71,116,75.8l-3,.2a2,2,0,0,1-.37-3.94,184.3,184.3,0,0,1,24.7-1l.17-5.13a1.54,1.54,0,1,1,3,.1l-.17,5.13a183,183,0,0,1,22.56,2.57q4,.73,1.65,3.38a4.7,4.7,0,0,1-5.33,1.33q-14.69-5-40.18-2.86l-.68,20.22q-.48,14.48-9.11,24.15-2.1,2.36-6-1.71l.3-1.2Q114.83,110.51,115.32,95.71Zm17.79,17.21L122,120.71c-.52.38-1.25-.25-2.2-1.89-.79-1.64-.84-2.64-.15-3l13-4.09Zm5.49-36.06a1.68,1.68,0,0,1,1.45,1.86l-.16,4.83q3.53.12,9.28.92,5,1.07,1.86,4.59L151,90.57q5.53.18,12.3,1,1.75.36-.09,2.71-2.1,2.36-3.58,1.69a31.93,31.93,0,0,0-8.74-2.1l-.14,4.22q1.08,5.17-3.85,2.29a63.51,63.51,0,0,0-7.53-.86l-.75,22.33c-.07,2.21-.61,3.4-1.63,3.57-1-.24-1.46-1.46-1.38-3.67l.75-22.33a86.24,86.24,0,0,0-9.08.3q-3-1.3-.14-3.33,5.81-.41,9.33-.29l.11-3.32a113.31,113.31,0,0,0-14.61.42q-3-1.31-.14-3.33a122.08,122.08,0,0,1,14.86-.41l.09-2.71c-2.51-.09-5.79,0-9.82.27q-3-1.31-.14-3.32c4.2-.27,7.56-.35,10.07-.27l.17-4.83A1.68,1.68,0,0,1,138.6,76.86Zm-5.81,30.62-.29,1.19-9.5-1.82c-.67,0-.64-.93.09-2.72q1.57-2.05,2.07-1.74Zm6.79-14.58-.12,3.32a75,75,0,0,1,8.28.88l.12-3.62Zm23.3,25.55.21,1.22q-5.94,4.33-8.89,2.42-5.88-4.73-14.56-16.2l1.06-1.47Q151.64,116.27,162.88,118.45Zm-14.82-30.7a72.58,72.58,0,0,0-8.28-.88l-.09,2.72,8.28.58Zm6.28,15.32c1,1.44,1.09,2.35.41,2.73l-7.92,3.36-.72-.93,6-6.75C152.65,100.89,153.38,101.42,154.34,103.07Z"/>
  <path class="cls-2" d="M137,126.06l-.12,0c-1.31-.31-1.94-1.75-1.85-4.28l.73-21.72c-2.23,0-5.05.07-8.4.32h-.15l-.14-.06c-1.19-.52-1.8-1.15-1.88-1.93s.45-1.61,1.63-2.45l.14-.1.17,0c3.55-.25,6.5-.35,8.78-.3l.07-2.11a116,116,0,0,0-13.93.43l-.15,0-.15-.06c-1.18-.52-1.8-1.15-1.88-1.93s.45-1.61,1.63-2.46l.14-.09.16,0a121.66,121.66,0,0,1,14.33-.42l0-1.5c-2.39,0-5.47,0-9.15.29h-.15l-.14-.06c-1.18-.52-1.8-1.15-1.88-1.92s.45-1.62,1.63-2.46l.14-.1h.18c3.87-.24,7.07-.34,9.52-.29l.15-4.22a2.29,2.29,0,0,1,2.07-2.34l.13,0,.11,0a2.29,2.29,0,0,1,1.92,2.47L140.52,83c2.28.1,5.21.41,8.74.89,2,.44,3.15,1.15,3.49,2.2s-.06,2-1.12,3.24l0,.68c3.53.14,7.47.48,11.74,1a1.56,1.56,0,0,1,1.31,1c.25.68-.06,1.56-1,2.75q-2.41,2.7-4.31,1.87a29.72,29.72,0,0,0-7.9-2l-.12,3.48c.38,1.89.19,3.09-.6,3.66s-2.14.37-4.07-.74a66.2,66.2,0,0,0-6.73-.8l-.15,4.46.85-1.18.51.55c1.39,1.5,2.78,2.89,4.19,4.17l6.33-7.1a1.18,1.18,0,0,1,1-.43c.69.07,1.35.71,2.15,2.09a3.67,3.67,0,0,1,.89,2.69,1.38,1.38,0,0,1-.7.9l-7.94,3.38c5.25,4.38,10.58,7.11,15.9,8.15l.41.08.35,2-.31.22c-4.22,3.08-7.35,3.88-9.58,2.44-3.87-3.1-8.61-8.34-14.16-15.61l-.5,14.9c-.08,2.53-.8,3.93-2.14,4.15ZM134.71,98.8q.87,0,1.65,0l.61,0-.78,22.94c0,1,0,2.68.8,3,.79-.28,1-2,1-3l.77-22.94.61,0a66.56,66.56,0,0,1,7.6.87l.21.07c2.07,1.21,2.7,1,2.84.86s.52-.55.11-2.49v-.08l.16-5,.67.09a32.14,32.14,0,0,1,8.92,2.16c.88.39,2-.63,2.86-1.54.91-1.17.79-1.54.78-1.56s-.13-.11-.35-.16c-4.44-.54-8.56-.88-12.2-1l-.61,0,.08-2.34.15-.16c.83-.94,1.18-1.71,1-2.22s-1.07-1.06-2.55-1.38c-3.76-.52-6.86-.82-9.17-.9l-.61,0,.18-5.44a1,1,0,0,0-.86-1.21,1.06,1.06,0,0,0-.94,1.15l-.18,5.44-.61,0c-2.44-.08-5.75,0-9.84.25-1,.72-1,1.13-1,1.24,0,.27.4.58,1,.88,4-.26,7.25-.35,9.73-.27l.61,0-.13,3.93-.61,0a122.29,122.29,0,0,0-14.62.39c-1,.72-1,1.13-1,1.25s.4.57,1,.87a115.83,115.83,0,0,1,14.53-.41l.61,0L137,96.75l-.61,0c-2.28-.08-5.34,0-9.09.28-1,.71-1,1.13-1,1.24,0,.26.4.58,1,.87C130.2,98.91,132.66,98.8,134.71,98.8Zm5.69,7.08c5.61,7.38,10.38,12.68,14.18,15.74,1.63,1,4.29.31,7.85-2.22l-.08-.43c-7.28-1.53-14.54-6.1-21.59-13.59Zm6.5,2.37.13.16,7.48-3.17a.23.23,0,0,0,.05-.1c0-.11.05-.56-.73-1.74l0,0c-.84-1.44-1.23-1.51-1.23-1.51Zm-39.46,13.19c-1.35,0-2.87-.9-4.65-2.76l-.23-.24.44-1.77.22-.13c7.3-4.25,11.17-11.26,11.49-20.85l.65-19.24-2.36.16a2.47,2.47,0,0,1-2.6-2.42c.07-2.1,1.34-2.6,2.09-2.73a187.46,187.46,0,0,1,24.21-1l.15-4.52a2.29,2.29,0,0,1,2.08-2.34l.12,0,.12,0a2.29,2.29,0,0,1,1.92,2.47l-.16,4.54a183.8,183.8,0,0,1,22,2.54c1.68.31,2.64.88,2.93,1.74s0,1.64-.93,2.65a5.3,5.3,0,0,1-6,1.5c-9.58-3.27-22.83-4.24-39.41-2.88l-.66,19.68c-.32,9.75-3.44,18-9.27,24.54a2.9,2.9,0,0,1-2.18,1.06Zm-3.53-3.36c1.41,1.42,2.67,2.15,3.56,2.14a1.7,1.7,0,0,0,1.29-.65c5.63-6.31,8.65-14.31,9-23.78L118.42,75,119,75c17-1.44,30.61-.47,40.43,2.9a4.11,4.11,0,0,0,4.68-1.17c.55-.62.8-1.13.69-1.44s-.38-.63-2-.93a183.78,183.78,0,0,0-22.49-2.56l-.59,0,.19-5.73a.93.93,0,1,0-1.8-.06l-.19,5.74-.61,0a184.8,184.8,0,0,0-24.62,1c-.47.08-1,.32-1,1.47A1.22,1.22,0,0,0,113,75.39l3.64-.24-.69,20.58-.61,0,.61,0c-.34,9.94-4.33,17.25-11.87,21.73Zm17.81,3.35a1.07,1.07,0,0,1-.25,0c-.67-.14-1.34-.84-2.17-2.27-1-2-.93-3.3.08-3.87l.11-.05L133,111l.83,2.2-11.47,8.06A1.11,1.11,0,0,1,121.72,121.43Zm-1.78-5.08c-.28.23-.11,1.06.44,2.21.91,1.56,1.32,1.65,1.34,1.65l10.66-7.51-.09-.25Zm13-7-10.08-1.94a1,1,0,0,1-.77-.46c-.36-.56-.24-1.48.42-3.08l.08-.14c1.15-1.5,2.08-2.4,2.88-1.89l8,5.34Zm-9.83-3.13,8.92,1.72,0-.22L125,103a6.56,6.56,0,0,0-1.35,1.45A4.82,4.82,0,0,0,123.13,106.25Zm25.2-8.44-.68-.1a71.84,71.84,0,0,0-8.21-.88l-.61,0,.16-4.56,9.5.67Zm-8.24-2.17c1.94.1,4.31.35,7.06.76l.08-2.35-7.07-.49Zm8.47-4.82-9.5-.67.13-3.91.61,0a73.92,73.92,0,0,1,8.35.89l.53.08ZM140.32,89l7.07.49,0-1.24c-2.77-.41-5.14-.67-7.06-.77Z"/>
  <g>
    <path class="cls-1" d="M201,75.31a178.35,178.35,0,0,1-9,27.4q-6.15,14-14.68,22.43l-.89-1.24A131.86,131.86,0,0,0,187.1,99.68q3.17-9.36,7.43-26ZM219,113.2q-2.89,11.53-11.89,14.94-6.6,2.48-15.3.29l13.6-54.25,6.25,1.57-12.93,51.59a17.32,17.32,0,0,0,11-2.47q5.88-3.68,7.92-11.79,1.68-6.69-1-10.19a9.75,9.75,0,0,1-.24,1.53,6.49,6.49,0,0,1-2,3.45,3.22,3.22,0,0,1-2.93.9,3.13,3.13,0,0,1-2.11-2.16,6.8,6.8,0,0,1-.11-4,6.64,6.64,0,0,1,2-3.49,3.17,3.17,0,0,1,3-.85q3.45.87,4.81,5.23A17.67,17.67,0,0,1,219,113.2Z"/>
    <path class="cls-2" d="M199.53,130.06a32.19,32.19,0,0,1-7.83-1l-.59-.15L205,73.44l7.44,1.87-12.9,51.47a16.55,16.55,0,0,0,9.89-2.43c3.76-2.35,6.34-6.19,7.65-11.42.86-3.43.83-6.2-.09-8.29a7.07,7.07,0,0,1-2.2,3.69,3.79,3.79,0,0,1-3.46,1,3.67,3.67,0,0,1-2.54-2.55,8,8,0,0,1,2.05-8.14,3.75,3.75,0,0,1,3.51-1c2.5.63,4.27,2.53,5.24,5.64a18.38,18.38,0,0,1,0,10c-2,7.86-6.1,13-12.27,15.36A22.17,22.17,0,0,1,199.53,130.06ZM192.59,128c5.41,1.26,10.23,1.12,14.34-.42,5.78-2.19,9.65-7.07,11.51-14.52h0a17.16,17.16,0,0,0,0-9.36c-.85-2.72-2.28-4.29-4.38-4.82a2.57,2.57,0,0,0-2.41.72,6.8,6.8,0,0,0-1.7,6.81,2.52,2.52,0,0,0,1.68,1.78,2.61,2.61,0,0,0,2.38-.78,5.9,5.9,0,0,0,1.83-3.13,8.36,8.36,0,0,0,.22-1.43l.1-1.61,1,1.28c1.9,2.48,2.28,6.09,1.12,10.71-1.39,5.55-4.15,9.64-8.19,12.17A18,18,0,0,1,198.72,128l-.72-.06,13-51.7-5.07-1.27Zm-15.42-1.92-1.54-2.14.2-.34a131.84,131.84,0,0,0,10.69-24.1c2.1-6.19,4.59-14.92,7.42-25.95l.15-.58,7.62,1.91-.15.59a180.07,180.07,0,0,1-9.07,27.5c-4.11,9.34-9.1,17-14.81,22.61Zm-.09-2.21.24.34c5.4-5.5,10.12-12.81,14.06-21.74a177.84,177.84,0,0,0,8.85-26.71L195,74.43c-2.77,10.78-5.23,19.34-7.29,25.45A133.43,133.43,0,0,1,177.08,123.86Z"/>
  </g>
  <g>
    <path class="cls-1" d="M265.86,130.52,261,138.05a49.23,49.23,0,0,0-9-12.12c-.59.42-1.16.8-1.73,1.14l-1.61,1L245,146.74l-5.9-1.15L242.14,130a19.37,19.37,0,0,1-7.17.13,8.22,8.22,0,0,1-5.32-3.24q-2.24-3-1.29-7.94a10.42,10.42,0,0,1,2.83-5.69,4.94,4.94,0,0,1,4.54-1.55,3,3,0,0,1,2.14,1.89,6,6,0,0,1,.32,3.67,6.47,6.47,0,0,1-1.73,3.4,3,3,0,0,1-2.7,1.08,2.87,2.87,0,0,1-2-1.8,5.88,5.88,0,0,1-.29-3.6,7.33,7.33,0,0,1,.39-1.33,6.42,6.42,0,0,0-2.25,4.24,7.69,7.69,0,0,0,.83,5.77,5.57,5.57,0,0,0,3.73,2.47q6.84,1.33,14.27-6.5a51.33,51.33,0,0,0,10.49-17.32l-22.53-4.4.37-1.87,10.94,2.14L249.35,91l5.9,1.15-1.66,8.49,12.82,2.51q-4.87,13.35-11.73,20.29A29.43,29.43,0,0,1,265.86,130.52Z"/>
    <path class="cls-2" d="M245.46,147.46l-7.09-1.39,3-15.37a19.21,19.21,0,0,1-6.52,0,8.78,8.78,0,0,1-5.69-3.49c-1.59-2.15-2.06-5-1.39-8.4a11.06,11.06,0,0,1,3-6,5.54,5.54,0,0,1,5.08-1.71,3.57,3.57,0,0,1,2.58,2.24,6.54,6.54,0,0,1,.37,4,7.1,7.1,0,0,1-1.9,3.72,3.5,3.5,0,0,1-3.24,1.24,3.39,3.39,0,0,1-2.46-2.14,5.85,5.85,0,0,1-.5-2.61,10.68,10.68,0,0,0-.5,1.79,7.18,7.18,0,0,0,.74,5.33,5,5,0,0,0,3.34,2.19c4.32.85,8.93-1.28,13.71-6.32a50.64,50.64,0,0,0,10.1-16.44l-22.41-4.38.59-3.06,11,2.14,1.66-8.5L256,91.69l-1.66,8.49,12.93,2.53-.25.67c-3.11,8.53-6.89,15.2-11.23,19.85a29.48,29.48,0,0,1,10.56,6.87l.32.35-5.66,8.8-.49-.9a49.13,49.13,0,0,0-8.57-11.63q-.69.48-1.35.87l-1.37.81Zm-5.66-2.35,4.7.92,3.6-18.39,1.84-1.1c.54-.32,1.11-.69,1.68-1.1l.41-.3.37.35a49.31,49.31,0,0,1,8.65,11.38l4-6.28A29.78,29.78,0,0,0,254.46,124l-.87-.33.66-.66c4.37-4.43,8.19-11,11.34-19.4l-12.72-2.48,1.66-8.5-4.7-.92-1.66,8.5-10.94-2.14-.13.67,22.63,4.42-.25.68a52.28,52.28,0,0,1-10.61,17.52c-5.09,5.36-10.08,7.61-14.84,6.68a6.25,6.25,0,0,1-4.12-2.73,8.3,8.3,0,0,1-.92-6.23,7,7,0,0,1,2.5-4.62l1.65-1.15-.73,1.88a7,7,0,0,0-.37,1.22,5.3,5.3,0,0,0,.26,3.23,2.25,2.25,0,0,0,1.58,1.45,2.38,2.38,0,0,0,2.15-.91,5.88,5.88,0,0,0,1.56-3.09,5.4,5.4,0,0,0-.28-3.3,2.37,2.37,0,0,0-1.7-1.54,4.32,4.32,0,0,0-4,1.39A9.82,9.82,0,0,0,229,119c-.6,3.07-.2,5.58,1.18,7.46a7.54,7.54,0,0,0,4.94,3,18.84,18.84,0,0,0,6.95-.13l.88-.17Z"/>
  </g>
  <g>
    <path class="cls-1" d="M316.56,120.19l-7.32-.66c-1.23,9.24-.82,18.76-3.55,27.66-1.18,3.86-3,7.64-6,10.3a13,13,0,0,1-9.81,3.32,10.34,10.34,0,0,1-7.82-5c-1.82-3.26-1.65-7.93-.49-11.36a7.52,7.52,0,0,1,1.81-3.1,3.71,3.71,0,0,1,3.31-1c2,.47,2.87,2.74,3,4.73a8.12,8.12,0,0,1-1,4.52,4.91,4.91,0,0,1-3.79,2.45,2.32,2.32,0,0,1-2.44-1.41,7.27,7.27,0,0,0,10.21,7.06c3.17-1.41,4.9-4.84,6-8.14,3.17-9.79,2.61-20.35,4-30.54l-14.84-1.33-1.64,18.28-6.64-.6L281.12,117l-7.44-.66.2-2.17,7.43.67,1.32-14.7,6.64.6L288,115.44l14.83,1.33,1.32-14.7,6.64.6-1.32,14.7,7.34.66Z"/>
    <path class="cls-2" d="M291,161.48a10.19,10.19,0,0,1-1.24-.07,10.92,10.92,0,0,1-8.29-5.33c-2.09-3.74-1.59-8.73-.53-11.85a7.87,7.87,0,0,1,2-3.35,4.32,4.32,0,0,1,3.87-1.2c2.37.56,3.33,3.2,3.43,5.29a8.5,8.5,0,0,1-1.06,4.86,5.48,5.48,0,0,1-4.27,2.75,3.6,3.6,0,0,1-1.76-.36,6.65,6.65,0,0,0,9.24,4.84c2.46-1.09,4.3-3.63,5.64-7.76,2.06-6.36,2.54-13.2,3-19.81.24-3.29.47-6.68.9-10l-13.6-1.22-1.64,18.28-7.85-.71,1.64-18.28L273,116.9l.3-3.38,7.44.67,1.32-14.7,7.85.7-1.31,14.7,13.6,1.22,1.32-14.7,7.86.71-1.32,14.7,7.34.65-.31,3.38-7.34-.66c-.37,3-.59,6-.8,8.93-.43,6.06-.88,12.33-2.69,18.25-1.44,4.7-3.48,8.17-6.23,10.58A13.92,13.92,0,0,1,291,161.48Zm-5-20.68a3.3,3.3,0,0,0-2.21,1,6.85,6.85,0,0,0-1.65,2.86c-1.06,3.12-1.33,7.69.44,10.86a9.71,9.71,0,0,0,7.36,4.72,12.42,12.42,0,0,0,9.33-3.16c2.58-2.27,4.5-5.54,5.87-10,1.77-5.79,2.21-12,2.64-18,.23-3.15.46-6.41.88-9.59l.08-.57,7.3.65.09-1-7.34-.66,1.32-14.7-5.43-.48-1.32,14.69-16-1.43,1.32-14.7-5.43-.49-1.32,14.7-7.43-.67-.09,1,7.44.67-1.64,18.28,5.43.49L287.21,117l16.08,1.44-.09.63c-.47,3.49-.73,7.08-1,10.56-.47,6.68-1,13.59-3.06,20.09-1.45,4.48-3.51,7.27-6.31,8.51a7.88,7.88,0,0,1-11.06-7.66l.21-3.72,1,3.6c.18.65,1.08,1,1.83,1a4.24,4.24,0,0,0,3.29-2.15A7.36,7.36,0,0,0,289,145c-.09-1.8-.9-3.78-2.5-4.16A2,2,0,0,0,286,140.8Z"/>
  </g>
  <g>
    <path class="cls-1" d="M344.46,111.21l-4.36,11a73.91,73.91,0,0,0-19.57-17.64l.57-2.1A51.72,51.72,0,0,1,344.46,111.21Zm18.9,10q.6,21.33-12.39,32.22-10.59,8.79-27.06,9l-.32-11.38q14.32-.49,24.19-6.15,14.13-8,13.65-24.54a16.36,16.36,0,0,0-1.29-6.72,5.37,5.37,0,0,1-1.07,3.87,3.63,3.63,0,0,1-2.86,1.63,3.78,3.78,0,0,1-3.19-1.68,8.32,8.32,0,0,1-.19-8.82,3.73,3.73,0,0,1,3.08-1.84c2.46,0,4.37,1.61,5.73,4.9A28,28,0,0,1,363.36,121.24Z"/>
    <path class="cls-2" d="M323.27,163.07l-.36-12.59.64,0c9.4-.32,17.43-2.36,23.88-6.06,9.16-5.2,13.65-13.28,13.34-24a24.19,24.19,0,0,0-.38-3.84,5.94,5.94,0,0,1-.78,1.33,4.25,4.25,0,0,1-3.38,1.89,4.47,4.47,0,0,1-3.75-2,8,8,0,0,1-1.48-4.69,7.86,7.86,0,0,1,1.27-4.8,4.35,4.35,0,0,1,3.63-2.12c2.76,0,4.89,1.75,6.36,5.3a28.79,28.79,0,0,1,1.76,9.72h0c.41,14.33-3.83,25.33-12.61,32.69-7.14,5.93-16.39,9-27.48,9.14Zm1-11.42.29,10.18c10.48-.24,19.21-3.21,26-8.82,8.48-7.11,12.58-17.8,12.18-31.76a27.62,27.62,0,0,0-1.68-9.32c-1.25-3.05-2.92-4.52-5.09-4.5a3.06,3.06,0,0,0-2.54,1.56,7.76,7.76,0,0,0,.17,8.15,3.16,3.16,0,0,0,2.63,1.42,3,3,0,0,0,2.34-1.39,4.78,4.78,0,0,0,1-3.47l-.26-3.32,1.52,3a17.2,17.2,0,0,1,1.35,7c.32,11.18-4.37,19.62-14,25.06C341.64,149.16,333.61,151.25,324.26,151.65Zm16-28.21-.73-.92A73.82,73.82,0,0,0,320.17,105l-.4-.24.83-3,.57.06a52.6,52.6,0,0,1,23.67,8.89l.41.27Zm-19-19.18A74.64,74.64,0,0,1,339.9,120.9l3.77-9.47a51.36,51.36,0,0,0-22.07-8.33Z"/>
  </g>
  <g>
    <path class="cls-1" d="M421.74,128.13q2.33,5.72,1.14,10.14a8.33,8.33,0,0,1-5,6q-11.13,4.53-23.57-18.73l-2.55,30.32-8.44-.75,5.47-62.9-21.51,8.73-.93-2.29,31.43-12.76-3.2,36.26q12,24.15,22.41,19.91a7.06,7.06,0,0,0,4.22-4.91c.69-2.41.4-5.18-.88-8.33s-2.89-5.1-4.91-6c.2.4.38.77.52,1.13a8.55,8.55,0,0,1,.59,4.94,3.75,3.75,0,0,1-2.17,3.06,3.67,3.67,0,0,1-3.59-.63,8.16,8.16,0,0,1-2.94-3.82,7,7,0,0,1-.37-5,4.14,4.14,0,0,1,2.49-2.87c2.05-.84,4.22-.4,6.51,1.3A16.55,16.55,0,0,1,421.74,128.13Z"/>
    <path class="cls-2" d="M392.28,156.51l-9.65-.86,5.43-62.51-21.14,8.58-1.39-3.41,32.91-13.37L395.17,122c7.76,15.58,15,22.13,21.56,19.47A6.45,6.45,0,0,0,420.6,137a14.6,14.6,0,0,0-3.87-12.58,8.93,8.93,0,0,1,.37,4.6,4.36,4.36,0,0,1-2.54,3.51,4.27,4.27,0,0,1-4.16-.69,8.87,8.87,0,0,1-3.16-4.1,7.53,7.53,0,0,1-.39-5.42,4.76,4.76,0,0,1,2.84-3.24c2.25-.91,4.64-.45,7.1,1.38a17.1,17.1,0,0,1,5.51,7.46c1.59,3.92,2,7.46,1.17,10.53a9,9,0,0,1-5.39,6.4c-7.42,3-15.28-2.78-23.37-17.23Zm-8.33-2,7.22.63,2.67-31.75,1,1.82c8.09,15.1,15.76,21.31,22.82,18.45a7.73,7.73,0,0,0,4.66-5.58c.75-2.81.37-6.09-1.11-9.76h0a15.92,15.92,0,0,0-5.12-6.94c-2.12-1.58-4.05-2-5.91-1.23a3.57,3.57,0,0,0-2.14,2.48,6.4,6.4,0,0,0,.36,4.59,7.62,7.62,0,0,0,2.71,3.55,3.11,3.11,0,0,0,3,.57,3.19,3.19,0,0,0,1.81-2.61,8,8,0,0,0-.57-4.6,11.09,11.09,0,0,0-.49-1.08l-.77-1.53,1.56.7c2.16,1,3.91,3.08,5.23,6.32s1.63,6.2.9,8.73a7.68,7.68,0,0,1-4.58,5.31c-7.26,2.95-15.07-3.85-23.19-20.21l-.07-.15v-.17l3.11-35.27L367.12,99l.47,1.15,21.86-8.87Z"/>
  </g>
  <path class="cls-8" d="M429.74,118.53,425,117.47c1.61,1.86,5.79,3.56,5.79,3.56a60.3,60.3,0,0,0,12.81,3.3c8.39,1.39,10.79.72,10.79.72a3.4,3.4,0,0,0,1.5-.75l-3.41-.75C437.84,123.09,429.74,118.53,429.74,118.53Z"/>
  <path class="cls-9" d="M451.62,88.33c1.31-1.62,4.86-2.45,4.86-2.45,19.62-5.18,15.43-42.06,15.43-42.06l-24.5-5.5s-9.18,13.31-10.93,26.51,7.21,19.34,7.21,19.34a3.45,3.45,0,0,1,1.21,3.3L443,98.83a38.84,38.84,0,0,1-4.4,14s-1,2.24-3,1.89-4.24-.51-4.24-.51-6.56-.61-7,1.72a2,2,0,0,0,.61,1.54l4.72,1.06s8.1,4.56,22.76,5l3.41.75a2,2,0,0,0,.65-1.33c.12-1.73-3.37-3.13-3.37-3.13a41,41,0,0,0-4.7-1.8c-2.95-1-3-3.26-3-3.26-1.12-4.21,1.92-14.13,1.92-14.13S450.31,90,451.62,88.33Z"/>
  <path class="cls-10" d="M470.32,16.18s-.56-1.94-1.9-1.29c0,0-.45.19-.36,1s-.89,1-.89,1-1.45.21-1.44-1.45,2.2-2.28,2.2-2.28,3.56-1.3,6.67,3.77A11.17,11.17,0,0,1,476,26.33s-1.07,3.35-5.13,7.45-4.59,6.94-4.59,6.94-2.25,3.93,3.06,18.51c0,0,2.8,8.76-3.41,18.45s-15.54,8.58-15.54,8.58-13.52-.07-12.57-20.19c0,0,1.45-11,5.18-12.9s4.27,1,4.27,1,.43,2.1-1.22,2.26a1.29,1.29,0,0,1-1.58-1.34,1,1,0,0,1,.36-1s-3,1.26-2.21,5.65,5.55,6.48,5.55,6.48,7.66,3.66,11.88-5.39a32.5,32.5,0,0,0,1.45-12.8,33.75,33.75,0,0,1,1.13-12.48A29.42,29.42,0,0,1,468.1,24.9S471.81,20,470.32,16.18Z"/>
  <path class="cls-11" d="M441.21,117.1c-.25-.07-7.77-1.49-9.44-1.22,0,0-1.37-.06-1.44.51a1,1,0,0,0,.44.9s0,.55,9.94,2.66c0,0,10.17,2.36,10.08,1.55a1.42,1.42,0,0,0-.63-1.11S448.75,119.45,441.21,117.1Z"/>
  <path class="cls-11" d="M441,113.09c.32,1.73,2.24.63,2.24.57s.31-.19.44-.94c0-.22.15-.27.29-.25a53.4,53.4,0,0,1,1.75-10.62,141.32,141.32,0,0,1,4.14-14.38l-3.42-.4s-2.57,18.24-5.89,25C440.76,112.22,440.93,112.49,441,113.09Z"/>
  <path class="cls-12" d="M445.42,117.81a5.48,5.48,0,0,1-1.35-3.68,7.93,7.93,0,0,1-.06-1.66c-.14,0-.26,0-.29.25-.13.75-.44.94-.44.94s-1.92,1.16-2.24-.57c-.11-.6-.28-.87-.45-1a8.92,8.92,0,0,1-1,1.71,5.21,5.21,0,0,1-2.81,2.23s-1.16-.2-1.11.71,2.21,1.28,2.21,1.28a20.52,20.52,0,0,0,7.31,1.46C448.69,119.4,445.42,117.81,445.42,117.81Z"/>
  <path class="cls-12" d="M445.64,86.86c0,.72-.08,1.32,0,1.34a2.06,2.06,0,0,1,1.2-.72A1.31,1.31,0,0,0,445.64,86.86Z"/>
  <path class="cls-12" d="M449.69,88.27a9,9,0,0,1,.8.61A9.16,9.16,0,0,1,451,88,1.36,1.36,0,0,0,449.69,88.27Z"/>
  <path class="cls-13" d="M452.16,86.69l.63-.81-7.72-1.36a2.2,2.2,0,0,1,.58,1.52c0,.27,0,.56,0,.82a1.31,1.31,0,0,1,1.22.62,3.65,3.65,0,0,1,2.83.79A1.36,1.36,0,0,1,451,88a3.28,3.28,0,0,1,.49-.63C452,86.87,452.16,86.69,452.16,86.69Z"/>
  <path class="cls-11" d="M468.07,44.41l2.21.49s-.62,16.5-.49,17l-2.46-7.83S467.9,44.37,468.07,44.41Z"/>
  <path class="cls-10" d="M464.44,14.19a2.11,2.11,0,0,1-2,1.69c-.47,0-1-.06-.88-.66a2.18,2.18,0,0,1,1.92-1.77A.77.77,0,0,1,464.44,14.19Z"/>
  <path class="cls-10" d="M450.49,56.42s-.43-1.78-1.7-1.29c0,0-.76.37-.3,1.62a1.09,1.09,0,0,0,1.32.71S450.48,57.34,450.49,56.42Z"/>
  <path class="cls-2" d="M464.21,76.92a13.15,13.15,0,0,1-5.64,5.29c.53-.86-.46-2.17.76-2.73C461,78.72,461.44,75.82,464.21,76.92Z"/>
  <path class="cls-2" d="M467.78,54.41s-.76,12.9-3.84,19.09a2.37,2.37,0,0,1-.39.66c-.25.29-.21.48-.21.48s0,.22.49.38a2,2,0,0,0,.86.1,1.36,1.36,0,0,0,.92-.8l1.06-2.9s.95-3.28,1.31-5.3,1.16-4.63,1.81-4.18a19.76,19.76,0,0,0-.39-3.2c-.28-.83-1-2.3-1-2.3A10.19,10.19,0,0,1,467.78,54.41Z"/>
  <g>
    <g>
      <path class="cls-14" d="M27.69,39.22s13.74-4.8,19.23-8.62c0,0,8.43-5.33,11.46,1.39,0,0,8.36,18.34-23.13,29.12l2.53-.86C6.29,71,1.65,51.43,1.65,51.43c-1.73-7.17,8.19-8.12,8.19-8.12,6.69-.35,20.48-5,20.48-5"/>
      <path class="cls-15" d="M20.91,64.25a24.15,24.15,0,0,1-11.8-2.73A16.69,16.69,0,0,1,.92,51.6a6.08,6.08,0,0,1,.84-5.16c2.35-3.3,7.78-3.86,8-3.88,5.34-.28,15.39-3.37,19-4.52s13.37-5,17.74-8c.22-.15,4.84-3,8.73-1.87a6.05,6.05,0,0,1,3.83,3.56,16.71,16.71,0,0,1-.39,12.85c-2.89,6.72-9.75,12.19-20.4,16.29A.77.77,0,0,1,38,61l-2.51.86h0a.53.53,0,0,1-.28,0A49.86,49.86,0,0,1,20.91,64.25ZM27.64,40C23.2,41.35,14.77,43.8,9.88,44.05c0,0-5,.52-6.9,3.27a4.55,4.55,0,0,0-.6,3.93,15.48,15.48,0,0,0,7.49,9c6.31,3.46,15.19,3.38,26.39-.26,11.09-4,18.15-9.37,21-16A15.55,15.55,0,0,0,57.7,32.3a4.6,4.6,0,0,0-2.9-2.74c-3.22-1-7.43,1.65-7.48,1.67-4,2.79-12.15,6-16.5,7.65a.68.68,0,0,1-.26.15l-1.31.43-1.31.47A1,1,0,0,1,27.64,40Z"/>
    </g>
    <g>
      <path class="cls-14" d="M31.54,48,48,42.22A139.73,139.73,0,0,1,39.73,8.4L20.3,14.7l.15,0L1,21.67A139.06,139.06,0,0,1,15.24,53.43L31.77,48"/>
      <path class="cls-15" d="M15.24,54.18a.72.72,0,0,1-.34-.09.73.73,0,0,1-.37-.44A140,140,0,0,0,.37,22.08a.78.78,0,0,1-.08-.65A.73.73,0,0,1,.75,21L20,14l.07,0,.15-.05.07,0L39.5,7.69a.75.75,0,0,1,.65.09.73.73,0,0,1,.33.56A140,140,0,0,0,48.66,42a.78.78,0,0,1,0,.58.77.77,0,0,1-.43.4l-16.13,5.7-.07,0-.22.07-.07,0L15.48,54.14A.67.67,0,0,1,15.24,54.18ZM2.13,22.06a144.16,144.16,0,0,1,13.6,30.42l15.68-5.2L47,41.77A144.58,144.58,0,0,1,39.08,9.4l-18.46,6Z"/>
    </g>
    <g>
      <ellipse class="cls-14" cx="20.27" cy="14.76" rx="20.52" ry="6.23" transform="translate(-3.69 7.37) rotate(-18.91)"/>
      <path class="cls-15" d="M7.06,24.39c-3.92,0-6.3-.94-6.91-2.74s.9-4.35,4.53-7A52.56,52.56,0,0,1,18,8.16a52.3,52.3,0,0,1,14.54-3C37,5,39.73,5.92,40.4,7.86s-.91,4.35-4.53,7a53,53,0,0,1-13.34,6.53A53,53,0,0,1,8,24.38ZM33.47,6.62l-.87,0A51.31,51.31,0,0,0,18.5,9.57,51.57,51.57,0,0,0,5.55,15.9c-2.9,2.1-4.39,4.07-4,5.27S4.36,23,7.94,22.88a51.5,51.5,0,0,0,14.11-2.94A51.15,51.15,0,0,0,35,13.61c2.91-2.1,4.4-4.06,4-5.26h0C38.6,7.25,36.57,6.62,33.47,6.62Z"/>
    </g>
    <path class="cls-16" d="M30.06,43.56h0l0,0Z"/>
    <g>
      <path class="cls-3" d="M45.06,33.67a33.71,33.71,0,0,1-14.8,10h0l-.08,0h0l-.07,0h0l-.07,0h0l-.08,0,0,0A33.71,33.71,0,0,1,12.3,44.9c1,2.65,2,5.46,2.89,8.41l0,.11s5.76,3.22,17.92-.93l0,0,.06,0C45.4,48.27,48,42.2,48,42.2l0-.11C46.84,39.21,45.89,36.38,45.06,33.67Z"/>
      <path class="cls-15" d="M21.74,55.37c-4.49,0-6.74-1.21-6.88-1.29a.78.78,0,0,1-.36-.44l.69-.33-.72.22c-.85-2.75-1.81-5.57-2.88-8.36a.75.75,0,0,1,.15-.77.74.74,0,0,1,.74-.23A33.34,33.34,0,0,0,29.87,43h0L30,43h0a33.32,33.32,0,0,0,14.44-9.74.75.75,0,0,1,1.31.23c.88,2.86,1.84,5.68,2.86,8.38l0,.11a.7.7,0,0,1,0,.55c-.11.26-2.84,6.43-15.17,10.67l-.11,0A36.1,36.1,0,0,1,21.74,55.37Zm-5.9-2.49c1.22.52,6.81,2.4,17.06-1.1l.1,0c10.31-3.54,13.52-8.43,14.15-9.58-.85-2.26-1.65-4.6-2.41-7a35.15,35.15,0,0,1-14.16,9.16h0l0,0h0l-.1.05h0A35.22,35.22,0,0,1,13.47,45.9C14.33,48.24,15.13,50.58,15.84,52.88Z"/>
    </g>
  </g>
  <g>
    <path class="cls-17" d="M443.33,164.92a4.61,4.61,0,0,1-1.58,3.42,11,11,0,0,1-2.35,1.71c-.8.43-2.39,1.12-4.75,2.06q-4.44,1.78-6.12,3.82a4.24,4.24,0,0,1,2.7-1,10.91,10.91,0,0,1,3.07.6,9.24,9.24,0,0,0,2.5.51,3.12,3.12,0,0,0,2.19-1,4.87,4.87,0,0,0,1.36-2.43c0-.11.08-.16.16-.16l.05,0a4.05,4.05,0,0,1-.94,2.11,5.18,5.18,0,0,1-4.32,2.42,10.79,10.79,0,0,1-2.84-.57,13.69,13.69,0,0,0-2.88-.68c-1,0-1.49.38-1.59,1.15,0,.21-.09.32-.2.32a.1.1,0,0,1-.11-.11c0-.44.37-1,1.11-1.79a10.67,10.67,0,0,1,1.94-1.61c.71-.43,2-1.08,3.83-1.94A17.71,17.71,0,0,0,440,168.1a6.3,6.3,0,0,0,2-4.23,1.67,1.67,0,0,0-.65-1.38,2.73,2.73,0,0,0-1.74-.52q-2.44,0-5.28,2.51t-2.85,4.65c0,1.05.63,1.57,1.88,1.57a5.63,5.63,0,0,0,3.34-1.46,8,8,0,0,0,2.52-3.17c0-.1.07-.14.12-.14s.09,0,.09.08a4.2,4.2,0,0,1-1.2,2,8.94,8.94,0,0,1-2.4,2,4.89,4.89,0,0,1-2.43.79,2.31,2.31,0,0,1-1.71-.64,2.23,2.23,0,0,1-.65-1.69q0-2.59,3.43-4.86a9.58,9.58,0,0,1,5.2-1.84,4,4,0,0,1,2.64.86A2.82,2.82,0,0,1,443.33,164.92Z"/>
    <path class="cls-17" d="M456.88,165.74c0,2.12-1.05,4.38-3.17,6.78q-3.87,4.36-7.15,4.37a3.52,3.52,0,0,1-2.74-1.19,4.44,4.44,0,0,1-1.06-3q0-3.74,4.58-7.58,4-3.31,6.32-3.32a2.87,2.87,0,0,1,2.35,1.1A4.5,4.5,0,0,1,456.88,165.74Zm-1-1.53c0-1.51-.73-2.26-2.18-2.26q-1.8,0-4.14,2.1a19,19,0,0,0-3.83,4.81,11,11,0,0,0-1.67,5.22c0,1.74.83,2.61,2.48,2.61q3,0,6.13-4.26a19.24,19.24,0,0,0,2.33-4.26A11,11,0,0,0,455.87,164.21Z"/>
    <path class="cls-17" d="M469.87,162.31c0,.09-1.05,1.75-3.15,5-1.68,2.6-2.85,4.52-3.49,5.75a18.37,18.37,0,0,0-1.45,3.74,4.3,4.3,0,0,0-.86-.11,12.5,12.5,0,0,0-1.5.17q.94-2.76,5.76-8.57a61.1,61.1,0,0,0,3.93-5.1,46.66,46.66,0,0,1-7.25,7.05,9.45,9.45,0,0,1-2.81,1.78c-.07,0-.11,0-.11-.08s.05-.12.16-.16q3.52-1.6,10.23-9l.18-.2a1.64,1.64,0,0,1,.3-.27S469.87,162.28,469.87,162.31Z"/>
    <path class="cls-17" d="M483.51,165.37a8.54,8.54,0,0,1-2.12,5.09,22.55,22.55,0,0,1-5.78,5,21.16,21.16,0,0,1-3.42,1.75,8.23,8.23,0,0,1-2.74.72c-.15,0-.23,0-.23-.14s.11-.2.34-.2h.2c1.67,0,3.76-1.11,6.25-3.35a22.52,22.52,0,0,0,5.54-7.22,12,12,0,0,1-3.34,3.35,6.67,6.67,0,0,1-3.65,1.33,2.85,2.85,0,0,1-2.13-.81,3,3,0,0,1-.8-2.16q0-2.47,2.85-4.69a12.35,12.35,0,0,1,3-1.77,7.54,7.54,0,0,1,2.78-.68,3,3,0,0,1,2.35,1A4,4,0,0,1,483.51,165.37Zm-1.2-1.2c0-1.58-.68-2.36-2-2.36s-3,.95-4.8,2.84-2.67,3.6-2.67,5.11c0,1.19.63,1.79,1.9,1.79a6.2,6.2,0,0,0,3-1,11.47,11.47,0,0,0,3-2.53A6,6,0,0,0,482.31,164.17Z"/>
  </g>
  <ellipse class="cls-18" cx="104.6" cy="19.19" rx="16.46" ry="15.73" transform="translate(79.67 122.57) rotate(-86.84)"/>
  <g>
    <path class="cls-19" d="M102.37,10.87a21.59,21.59,0,0,1-.82,3.17l.82.11a3,3,0,0,1,2.11,1.41A8.52,8.52,0,0,1,105,19a14.89,14.89,0,0,1-1.88,7.26,4.87,4.87,0,0,1-3.28,2.23,2,2,0,0,1-1.64-.7A6.49,6.49,0,0,1,97,25.4a3.21,3.21,0,0,1-.12-2.22l.47.47a10.77,10.77,0,0,0,1.41.93,3.38,3.38,0,0,0,1.17.47c.55,0,1.13-.54,1.76-1.64a17.52,17.52,0,0,0,1.29-6c0-1.41-.28-2-.82-1.88a3.73,3.73,0,0,0-1.53.59c-.47.86-.93,1.72-1.4,2.57q-2.58,4.82-4.11,6.1c-.7.16-1.17-.43-1.4-1.76-.08-.39.27-1,1-1.87.78-1,1.41-1.88,1.88-2.58l.35-.82c-1.41.08-2.31-.08-2.7-.47a2.72,2.72,0,0,1-.82-.7,10.57,10.57,0,0,0,2.11-.24,20.33,20.33,0,0,0,3.17-1.29c.31-.62.58-1.25.82-1.87a10.71,10.71,0,0,1,.47-1.88l-.12-.47a1,1,0,0,1-.59-.11,2,2,0,0,1,1.06-.82h.23C101.78,9.94,102.37,10.25,102.37,10.87Zm10.43,5.86q2.92,2.7,2.93,4.81c0,.93-.27,1.4-.82,1.4a5.69,5.69,0,0,1-2.34-.58,5.52,5.52,0,0,1-1.53-.71l-.7-.7c1.25-.23,2-.51,2.11-.82A8.66,8.66,0,0,0,110.57,17c-1-.86-1.6-1.37-1.75-1.53l-.36-.35A6.59,6.59,0,0,1,112.8,16.73Z"/>
    <path class="cls-19" d="M99.81,28.7A2.29,2.29,0,0,1,98,27.91a6.83,6.83,0,0,1-1.22-2.44,4.78,4.78,0,0,1-.27-1.8A8.4,8.4,0,0,1,95.27,25l-.11,0a1,1,0,0,1-.84-.14,2.65,2.65,0,0,1-.87-1.82c-.09-.47.26-1.14,1.12-2.08s1.39-1.86,1.85-2.55l.18-.42a3.39,3.39,0,0,1-2.49-.56,2.33,2.33,0,0,1-.85-.74L93,16.37h.46a10.72,10.72,0,0,0,2.06-.23,21.44,21.44,0,0,0,3-1.23,16.8,16.8,0,0,0,.77-1.78,10.68,10.68,0,0,1,.45-1.8l-.06-.21a.82.82,0,0,1-.56-.19L99,10.8l.08-.16a2.16,2.16,0,0,1,1.18-.93l.1,0h.23c1.34,0,2,.4,2,1.18v0a22.34,22.34,0,0,1-.74,2.92l.53.08a3.24,3.24,0,0,1,2.27,1.5A8.4,8.4,0,0,1,105.2,19a15.21,15.21,0,0,1-1.92,7.4c-1.14,1.48-2.31,2.26-3.47,2.34ZM97,23.65a4,4,0,0,0,.24,1.68,6.49,6.49,0,0,0,1.13,2.26,1.75,1.75,0,0,0,1.44.61,4.71,4.71,0,0,0,3.09-2.13A14.89,14.89,0,0,0,104.7,19a8.4,8.4,0,0,0-.44-3.28,2.79,2.79,0,0,0-1.91-1.27l-1.13-.16.09-.28a20.86,20.86,0,0,0,.81-3.11c0-.44-.52-.66-1.51-.66h-.18a2.21,2.21,0,0,0-.69.43h.36l.19.73,0,.07a10.27,10.27,0,0,0-.45,1.83A17.94,17.94,0,0,1,99,15.2l0,.08-.07,0a20.7,20.7,0,0,1-3.2,1.3,13.39,13.39,0,0,1-1.62.23,4.18,4.18,0,0,0,.38.25c.28.27.9.53,2.56.44l.4,0-.51,1.19c-.49.74-1.13,1.61-1.91,2.63-1,1.06-1,1.5-1,1.67.18,1,.45,1.36.65,1.49a.56.56,0,0,0,.4.09c1-.86,2.33-2.87,4-6l1.48-2.67a4.08,4.08,0,0,1,1.63-.63.68.68,0,0,1,.59.11c.35.27.52.91.52,2a17.71,17.71,0,0,1-1.31,6.07c-.7,1.22-1.34,1.79-2,1.79a3.69,3.69,0,0,1-1.3-.5,11.6,11.6,0,0,1-1.44-1Zm0-.7.52.52a11.26,11.26,0,0,0,1.35.9,3.47,3.47,0,0,0,1.1.44c.26,0,.77-.27,1.49-1.52a17.37,17.37,0,0,0,1.26-5.87c0-1.23-.23-1.53-.32-1.6s-.08-.05-.19,0a3.65,3.65,0,0,0-1.4.52l-1.37,2.52A46.66,46.66,0,0,1,97,23Zm17.92.24a6,6,0,0,1-2.45-.6,5.63,5.63,0,0,1-1.57-.74l-1.06-1.06.46-.08a4.2,4.2,0,0,0,1.88-.62,8.45,8.45,0,0,0-1.78-2.95c-1-.87-1.59-1.36-1.75-1.52s-.28-.27-.35-.35l-.45-.46.64,0A6.84,6.84,0,0,1,113,16.55c2,1.86,3,3.5,3,5S115.4,23.19,114.91,23.19Zm-4.06-2.09.37.38a5.5,5.5,0,0,0,1.43.64,5.56,5.56,0,0,0,2.26.57c.14,0,.57,0,.57-1.15,0-1.33-1-2.88-2.85-4.62h0a6.05,6.05,0,0,0-3.5-1.52l1.6,1.38a9,9,0,0,1,2,3.27l0,.1,0,.09C112.55,20.49,112.22,20.8,110.85,21.1Z"/>
  </g>
  <rect class="cls-20" x="56.47" y="4.01" width="30.38" height="30.38" rx="5.5" transform="translate(108.75 83.43) rotate(-135)"/>
  <path class="cls-11" d="M78.42,12.34q4,.23,5.74,2.34a1.42,1.42,0,0,1,0,.82c-.15.39-.78.51-1.87.35-2-.54-3.67-.94-4.92-1.17a22.09,22.09,0,0,0-3.75-.35,24.69,24.69,0,0,0-5,.47l-4.1.93a6.24,6.24,0,0,1-5.4-2,31.13,31.13,0,0,0,3.75-.23q2-.36,6.8-1.06a18.49,18.49,0,0,1,2.11-.35Zm-.82,5.39a.65.65,0,0,1-.12.93c-.7.71-1.36,1.33-2,1.88l-.35.35c1,.63,1,1.13-.12,1.52a5.4,5.4,0,0,1-2.58.12L73,23a3.75,3.75,0,0,1,.7,1.41,7,7,0,0,1,.35,2.46A12.71,12.71,0,0,1,73.85,30a3.63,3.63,0,0,1-.59,1.29,1.36,1.36,0,0,1-1.28.59,10.7,10.7,0,0,1-2.82-2.23q-.59-.7-2.22-2.46a11,11,0,0,1-1.88,1.17,4.7,4.7,0,0,1-1.52.24c-1,0-1.6-.79-1.76-2.35,0-.39.35-.58,1-.58l1.29.11c1.64-.23,3.29-.54,4.93-.93.23-.4.42-.4.58,0-.7.7-1.33,1.28-1.87,1.75a12,12,0,0,0,2,1.17c.78.32,1.29.4,1.52.24a17.76,17.76,0,0,0-.35-4.81,3.75,3.75,0,0,0-1.29-1.05l-.82.35a5,5,0,0,1-2.23-2.11,5.84,5.84,0,0,1-1.28-2.93c0-.39.23-.62.7-.7a16.23,16.23,0,0,0,1.64,1.52,7.89,7.89,0,0,1,2.93-1.17,8.58,8.58,0,0,1,3.28-.7A4.32,4.32,0,0,1,77.6,17.73ZM70.1,19a1.8,1.8,0,0,0-1.29.58,2.44,2.44,0,0,1,.7,1.17c2.27-.62,3.44-1.32,3.52-2.11A19.49,19.49,0,0,0,70.1,19Zm5-8.56c-.08.24-.47.35-1.17.35a9.43,9.43,0,0,1-3.17-.58c-1.09-.47-1.64-1-1.64-1.53A1.1,1.1,0,0,0,70,8.35c-.86-1.09-1.17-1.64-.93-1.64l2.34-.23Q75.26,6.24,75.14,10.46Zm5.27,14.42q1.53,1.17,1.53,2.22a1.08,1.08,0,0,1-.82,1.17l-.82-.11A10.57,10.57,0,0,1,77,25.7a20,20,0,0,1-1.64-2A8.64,8.64,0,0,1,80.41,24.88Z"/>
  <ellipse class="cls-18" cx="134.08" cy="19.19" rx="16.46" ry="15.73" transform="translate(107.53 152.01) rotate(-86.84)"/>
  <g>
    <path class="cls-19" d="M135.64,8.13a2.41,2.41,0,0,1,.94,1.87,1.81,1.81,0,0,1-1.05,1.64,7.35,7.35,0,0,1-3.28.94c-1.26-.24-2.19.39-2.82,1.87q-.7,1.41-.58,5.39a2.44,2.44,0,0,0,1.05.82,5.63,5.63,0,0,0,2.46-.46,25.58,25.58,0,0,1,2.81-.47,11.45,11.45,0,0,0,1.65-.12,4.92,4.92,0,0,1,2.1.35A5.26,5.26,0,0,1,140.57,21c.62.86.85,1.52.7,2,0,1.48-1.37,3-4.1,4.69a60,60,0,0,1-8.67,3.39V31q5.73-2.58,8.2-5.28c1.17-1.4,1.76-2.46,1.76-3.16,0-1.25-.4-1.88-1.18-1.88-1.25-.15-3.43.67-6.56,2.47l-1.05.23c-2-1.41-2.89-3-2.82-4.69.32-3.43,1.65-5.82,4-7.15a3.55,3.55,0,0,0,2.23-1.17,1.14,1.14,0,0,0,.35-.82A2.68,2.68,0,0,0,132.6,8a3.31,3.31,0,0,1-.59-.7C133.81,7.23,135,7.5,135.64,8.13Z"/>
    <path class="cls-19" d="M128.25,31.43v-.61l.14-.07c3.78-1.7,6.51-3.45,8.12-5.21,1.4-1.68,1.7-2.56,1.7-3,0-1.63-.7-1.63-.93-1.63-1.22-.15-3.37.67-6.43,2.43l-.07,0-1.17.26-.09-.07c-2-1.45-3-3.1-2.92-4.9.32-3.52,1.71-6,4.12-7.35l.07,0a3.34,3.34,0,0,0,2.07-1.07.91.91,0,0,0,.31-.68c0-.22-.13-.64-.76-1.36a3.18,3.18,0,0,1-.62-.75l-.17-.35H132c1.88-.08,3.13.2,3.81.88a2.69,2.69,0,0,1,1,2.06,2.06,2.06,0,0,1-1.18,1.86,7.67,7.67,0,0,1-3.39,1c-1.19-.22-2,.35-2.6,1.72-.45.9-.64,2.65-.57,5.2a2.36,2.36,0,0,0,.9.68,5.66,5.66,0,0,0,2.29-.47,27.1,27.1,0,0,1,2.87-.48,10.87,10.87,0,0,0,1.63-.12h0a5.32,5.32,0,0,1,3.92,1.47c.7,1,1,1.67.79,2.22,0,1.58-1.41,3.17-4.22,4.86a59.74,59.74,0,0,1-8.73,3.42Zm9.07-11c.62,0,1.39.37,1.39,2.12,0,.77-.6,1.86-1.82,3.32a20.81,20.81,0,0,1-5.62,4.05,61.27,61.27,0,0,0,5.79-2.44c2.62-1.57,4-3.08,4-4.46v-.08c.13-.38-.1-1-.67-1.77a4.88,4.88,0,0,0-1.51-1,4.74,4.74,0,0,0-2-.34,11,11,0,0,1-1.65.12,25.38,25.38,0,0,0-2.76.46,5.65,5.65,0,0,1-2.54.47,2.79,2.79,0,0,1-1.22-.91l-.05-.07v-.08c-.08-2.72.12-4.52.61-5.51.67-1.58,1.7-2.27,3.08-2a7.09,7.09,0,0,0,3.11-.9,1.57,1.57,0,0,0,.93-1.43,2.22,2.22,0,0,0-.85-1.69h0a4.21,4.21,0,0,0-3-.76l.27.29a2.87,2.87,0,0,1,.9,1.7,1.39,1.39,0,0,1-.43,1,3.72,3.72,0,0,1-2.31,1.23c-2.24,1.29-3.53,3.62-3.83,6.94-.07,1.58.81,3.06,2.62,4.39l.91-.2c3.18-1.83,5.37-2.64,6.68-2.47Z"/>
  </g>
  <g>
    <ellipse class="cls-18" cx="117.14" cy="47.72" rx="16.46" ry="15.73" transform="translate(58.87 159.99) rotate(-84.74)"/>
    <g>
      <path class="cls-19" d="M111.37,40.29a9,9,0,0,1,.11,1.53,16.83,16.83,0,0,1-1.4,4.69,14.58,14.58,0,0,0-.94,4.68,11.21,11.21,0,0,0,.12,1.64,6.55,6.55,0,0,0,.23,1.06A29.27,29.27,0,0,0,111.25,51c.08,0,.08.12,0,.35a3.8,3.8,0,0,1-.35,1.41,9.53,9.53,0,0,0-.35,2.57,4.57,4.57,0,0,1-.59,2.35c-.16.16-.43.12-.82-.12-1.17-.86-1.92-2.69-2.23-5.51a10.34,10.34,0,0,1,.24-2.93,10.08,10.08,0,0,1,1.29-3.86,11.77,11.77,0,0,0,1.75-5.51c0-.31.16-.31.47,0A8.35,8.35,0,0,1,111.37,40.29Zm12.3,1.18.82-.12a1.88,1.88,0,0,0,.59-.7c.7.23,1,.62.82,1.17s-.82,1.17-2.23,1.64v1.76c.23,2.34.47,4.57.7,6.68a2.8,2.8,0,0,1-.35,1.87c1.8.86,2.85,1.64,3.17,2.34a1.44,1.44,0,0,1-.12,1.65,4.42,4.42,0,0,1-2.93-.83,2.86,2.86,0,0,1,.82-.11A7.14,7.14,0,0,0,122,55.29a14.29,14.29,0,0,1-4.92.94,2.33,2.33,0,0,1-1.76-.94,2.53,2.53,0,0,1-.82-2.34c.08-.31.31-.39.7-.23a12.53,12.53,0,0,1,2.7-.24,21.27,21.27,0,0,1,3.16.47,1.67,1.67,0,0,0,.71-1.64q-.12-3.16-.36-7.62h-2.22a11.53,11.53,0,0,1-2-.11,13.66,13.66,0,0,1,1.88-1.06,10.51,10.51,0,0,1,2.46-.47c.24-1.33.51-2.65.82-4,.16-.47.35-.51.59-.12l.7.7a3.31,3.31,0,0,1-.12.82A15.81,15.81,0,0,1,123.67,41.47Zm-7.73,12.42.23.35a2.25,2.25,0,0,0,1,.23,5,5,0,0,0,1.18-.11,4.46,4.46,0,0,0,1-.35,9.56,9.56,0,0,0-2.58-.36A1,1,0,0,0,115.94,53.89Z"/>
      <path class="cls-19" d="M127.2,58h-.13a5.27,5.27,0,0,1-1.49-.14,5.39,5.39,0,0,1-1.58-.73l-.43-.28.49-.16.23-.07a6.23,6.23,0,0,0-2.24-1.08,14.57,14.57,0,0,1-4.94.93,2.58,2.58,0,0,1-2-1,2.78,2.78,0,0,1-.88-2.55.66.66,0,0,1,.32-.46.78.78,0,0,1,.65,0,13.29,13.29,0,0,1,2.68-.23,21.41,21.41,0,0,1,3.1.45,1.41,1.41,0,0,0,.52-1.34c-.08-2.06-.2-4.54-.34-7.4h-2a11,11,0,0,1-2.06-.12l-.56-.14.49-.32A12.81,12.81,0,0,1,119,42.29a7.9,7.9,0,0,1,2.34-.46c.23-1.28.49-2.57.79-3.82.08-.24.21-.54.49-.57s.49.28.55.38l.74.73v.1a4,4,0,0,1-.11.84c.06.54.1,1.1.11,1.69l.48-.07a1.52,1.52,0,0,0,.45-.58l.1-.19.21.07c1.11.37,1.09,1.08,1,1.48-.08.67-.81,1.25-2.22,1.75v1.58c.23,2.31.47,4.54.7,6.65a3.26,3.26,0,0,1-.25,1.79c1.72.85,2.72,1.62,3,2.35a1.65,1.65,0,0,1-.14,1.89Zm-2.33-.94a6.36,6.36,0,0,0,.86.33,4.31,4.31,0,0,0,1.21.1,1.15,1.15,0,0,0,0-1.26c-.3-.67-1.32-1.41-3.06-2.24l-.26-.13.16-.24a2.51,2.51,0,0,0,.31-1.71c-.23-2.11-.46-4.33-.7-6.68v-2l.17-.06c1.28-.43,2-.92,2.06-1.43.08-.29.08-.6-.46-.83a2.16,2.16,0,0,1-.56.6l-.1,0-1.11.15v-.28a17.86,17.86,0,0,0-.11-2v-.09a3.77,3.77,0,0,0,.11-.66l-.63-.62-.1-.15a.73.73,0,0,0-.07.17c-.3,1.28-.58,2.61-.81,4l0,.18-.18,0a10.06,10.06,0,0,0-2.38.44,11.22,11.22,0,0,0-1.25.67q.5,0,1.26,0h2.46v.24c.16,3,.28,5.52.36,7.62a1.89,1.89,0,0,1-.81,1.85l-.09.07-.11,0a20.87,20.87,0,0,0-3.13-.46,12.59,12.59,0,0,0-2.62.23l-.08,0-.07,0a.44.44,0,0,0-.31-.05.24.24,0,0,0-.06.11,2.28,2.28,0,0,0,.76,2.11,2.11,2.11,0,0,0,1.58.86,14.19,14.19,0,0,0,4.83-.92l.07,0h.06a7.25,7.25,0,0,1,3,1.57l.57.45h-.81ZM109.71,58a1.42,1.42,0,0,1-.7-.24c-1.24-.92-2-2.83-2.35-5.7a10.83,10.83,0,0,1,.24-3,10.61,10.61,0,0,1,1.32-3.95,11.6,11.6,0,0,0,1.72-5.38.44.44,0,0,1,.24-.46c.23-.1.46.09.66.28a6.07,6.07,0,0,1,.7.59l.06.05v.08a8.49,8.49,0,0,1,.12,1.57,16.45,16.45,0,0,1-1.42,4.78,14.14,14.14,0,0,0-.92,4.6,12.29,12.29,0,0,0,.11,1.6c0,.18.06.34.09.49.45-.69.93-1.51,1.44-2.45l.07-.13h.28l.11.12c.1.13.08.3,0,.52a4,4,0,0,1-.37,1.46,9.49,9.49,0,0,0-.33,2.48,4.7,4.7,0,0,1-.65,2.5A.58.58,0,0,1,109.71,58Zm.73-18.14a12.2,12.2,0,0,1-1.79,5.5,10.17,10.17,0,0,0-1.25,3.77,10.42,10.42,0,0,0-.24,2.88c.3,2.72,1,4.52,2.13,5.33.27.16.44.19.49.14a4.21,4.21,0,0,0,.52-2.18,10,10,0,0,1,.36-2.63c0-.13.1-.25.14-.37-.39.67-.76,1.25-1.1,1.75l-.29.41-.16-.47a8.07,8.07,0,0,1-.24-1.1,11.66,11.66,0,0,1-.12-1.68,15.21,15.21,0,0,1,1-4.78,16.27,16.27,0,0,0,1.39-4.59,7.82,7.82,0,0,0-.1-1.4,5.83,5.83,0,0,0-.62-.51Zm6.79,14.88a2.46,2.46,0,0,1-1.17-.26l-.06,0-.39-.57.15-.15a1.2,1.2,0,0,1,1.16-.3h0a10,10,0,0,1,2.55.35l.63.18-.59.29a4.14,4.14,0,0,1-1.11.37A5.23,5.23,0,0,1,117.23,54.72Zm-.89-.68a2.11,2.11,0,0,0,.89.18,4.37,4.37,0,0,0,1.11-.11l.23,0a9.69,9.69,0,0,0-1.7-.16.88.88,0,0,0-.6.05Z"/>
    </g>
  </g>
  <g>
    <ellipse class="cls-18" cx="146.63" cy="47.72" rx="16.46" ry="15.73" transform="translate(85.66 189.36) rotate(-84.74)"/>
    <g>
      <path class="cls-19" d="M145.61,42.92c-.08.54-.2,1.25-.35,2.1a23.31,23.31,0,0,0-.24,3.75l.24,3.17a7.54,7.54,0,0,0,1.4,3.75,11.86,11.86,0,0,0,1.06,1.64A29.07,29.07,0,0,0,150,60.14a.44.44,0,0,1,0,.59c-1.18,0-3-1.49-5.63-4.46a12.54,12.54,0,0,1-1.64-4,13.77,13.77,0,0,1-.12-3.16q.36-3.63.82-8.09a15.36,15.36,0,0,0-.11-2.11c-.16-.55-.36-1.48-.59-2.81,0-.31.12-.31.35,0A9.52,9.52,0,0,1,145.61,42.92Zm5.16-6c1.71.39,2.81.9,3.28,1.52.15.16.15.39,0,.71a1.23,1.23,0,0,1-1.17.7c-1.26-.16-2.27-1.13-3-2.93l.12-.12ZM156,35.42a1.56,1.56,0,0,1,.7,1.4l-.82.24a5.37,5.37,0,0,1-3-1.88c-.16-.16-.2-.27-.12-.35l1.17-.12A2.86,2.86,0,0,1,156,35.42Z"/>
      <path class="cls-19" d="M150.05,61H150c-1.26,0-3.16-1.49-5.82-4.54a12.77,12.77,0,0,1-1.7-4.11,14.3,14.3,0,0,1-.12-3.22q.36-3.64.82-8.1a13.28,13.28,0,0,0-.11-2c-.15-.52-.35-1.45-.59-2.81,0-.14,0-.43.24-.51s.46.19.56.32a9.78,9.78,0,0,1,2.63,7v0c-.08.55-.2,1.26-.36,2.12a23.92,23.92,0,0,0-.23,3.7l.24,3.15a7.29,7.29,0,0,0,1.35,3.61,11.73,11.73,0,0,0,1.06,1.65,32.79,32.79,0,0,0,2.2,2.79c.33.49.14.79,0,.93ZM143,36.45c.21,1.12.38,1.93.52,2.41a15.14,15.14,0,0,1,.12,2.18c-.31,3-.58,5.69-.82,8.11a13.25,13.25,0,0,0,.12,3.1,12.38,12.38,0,0,0,1.61,3.9c2.93,3.37,4.48,4.23,5.27,4.32a.34.34,0,0,0-.07-.19,28.77,28.77,0,0,1-2.22-2.8,10.93,10.93,0,0,1-1.08-1.68A7.73,7.73,0,0,1,145,52l-.24-3.18A23.88,23.88,0,0,1,145,45c.16-.85.27-1.54.35-2.09A9.31,9.31,0,0,0,143,36.45Zm9.89,3.67c-1.37-.17-2.47-1.21-3.28-3.08l-.07-.16.33-.32,1,.14c1.8.4,2.92.93,3.43,1.61.14.14.28.45,0,1A1.46,1.46,0,0,1,152.88,40.12Zm-2.7-3c.72,1.53,1.64,2.37,2.73,2.51a.93.93,0,0,0,.91-.57c.11-.2.12-.34.05-.41-.45-.6-1.5-1.08-3.15-1.46Zm5.74.21-.06,0a5.72,5.72,0,0,1-3.19-2,.59.59,0,0,1-.2-.41.39.39,0,0,1,.11-.27l.07-.06,1.26-.13a3.1,3.1,0,0,1,2.29.76,1.81,1.81,0,0,1,.79,1.6V37Zm-2.84-2.27a5.24,5.24,0,0,0,2.84,1.75l.56-.16a1.3,1.3,0,0,0-.58-1l0,0a2.64,2.64,0,0,0-1.93-.63Z"/>
    </g>
  </g>
  <g>
    <ellipse class="cls-18" cx="176.13" cy="47.72" rx="16.46" ry="15.73" transform="translate(112.45 218.73) rotate(-84.74)"/>
    <g>
      <path class="cls-19" d="M171.62,41.49c.15.55.35,1.37.58,2.47a2.86,2.86,0,0,1,0,1.17,22.12,22.12,0,0,1,5.39-1.88,9.87,9.87,0,0,0,.47-2.11,3.43,3.43,0,0,0-.35-1.52,2.08,2.08,0,0,0-1.41.94l-.11-.12a2.05,2.05,0,0,1,2.11-1.76c.93.16,1.4.86,1.4,2.11a23.6,23.6,0,0,1-.35,2.34A9.17,9.17,0,0,1,185,45.48a7.55,7.55,0,0,1,2.1,5.15,3.9,3.9,0,0,1-1.52,3.29q-1.87,1.76-7.73,2.93a6.48,6.48,0,0,1-2.11.23,23.17,23.17,0,0,0,6.56-3.52c1.41-1.24,2.07-2.42,2-3.51a5.5,5.5,0,0,0-1.05-3.63c-.78-1.1-2.23-1.64-4.34-1.64a22.88,22.88,0,0,1-2.11,3.75,14.44,14.44,0,0,1-2.58,2.81q.12.7.24,1.17-.24,2.12-1.29,1.05a2.82,2.82,0,0,0-.7-.46c-.63.39-1.41.89-2.35,1.52a18.57,18.57,0,0,1-1.76.7c-.54,0-1.09-.62-1.64-1.87a6.19,6.19,0,0,0-1.52-2.11l.47-1.17a9.24,9.24,0,0,1,2.69-2.58c.71-.47,1.25-.86,1.65-1.17.07-3.13.11-5.82.11-8.09a2.45,2.45,0,0,1,.71.94A15.39,15.39,0,0,1,171.62,41.49Zm-4.81,9.85a8.47,8.47,0,0,0,1.52,1.4,2.62,2.62,0,0,0,1.53-.35c.54-.39,1-.78,1.52-1.17a12.48,12.48,0,0,1-1-3Q166.93,50,166.81,51.34Zm5.74-4.22a11.88,11.88,0,0,0,.47,1.76l.24.7a1.59,1.59,0,0,0,.58-1,.77.77,0,0,1,.24.58,33.76,33.76,0,0,0,2.81-4A17.16,17.16,0,0,0,172.55,47.12Z"/>
      <path class="cls-19" d="M176,57.36a1.19,1.19,0,0,1-.34,0l-.67-.23.66-.24a23.18,23.18,0,0,0,6.49-3.48c1.33-1.18,2-2.3,1.9-3.3a5.28,5.28,0,0,0-1-3.51c-.71-1-2-1.51-4-1.53A23.14,23.14,0,0,1,177,48.67a14.84,14.84,0,0,1-2.52,2.77c.07.4.14.74.21,1v.09c-.11,1-.34,1.46-.73,1.59s-.85-.25-1-.39a2.73,2.73,0,0,0-.51-.36c-.61.38-1.34.86-2.22,1.45-.74.33-1.34.57-1.82.73h-.08c-.66,0-1.27-.66-1.86-2a6,6,0,0,0-1.46-2l-.14-.12.54-1.34a9.76,9.76,0,0,1,2.79-2.7q1-.63,1.53-1.08c.08-3.14.11-5.74.11-8v-.47l.39.26a2.63,2.63,0,0,1,.79,1,15.38,15.38,0,0,1,.84,2.27c.16.57.36,1.4.59,2.47a3.87,3.87,0,0,1,.06.8A22.21,22.21,0,0,1,177.4,43a10.06,10.06,0,0,0,.41-1.93,3.18,3.18,0,0,0-.24-1.21,1.88,1.88,0,0,0-1.06.8l-.17.24-.43-.43,0-.14a2.31,2.31,0,0,1,2.36-1.94c.77.13,1.65.64,1.65,2.36-.07.72-.17,1.42-.3,2.12a9.37,9.37,0,0,1,5.49,2.38,7.85,7.85,0,0,1,2.19,5.34,4.13,4.13,0,0,1-1.62,3.48c-1.28,1.21-3.85,2.18-7.83,3A10.68,10.68,0,0,1,176,57.36Zm2.74-12.83h.16c2.19,0,3.71.58,4.54,1.74a5.81,5.81,0,0,1,1.1,3.79c.08,1.14-.61,2.39-2.07,3.69a21.72,21.72,0,0,1-5,2.92l.36-.07c3.84-.77,6.4-1.73,7.61-2.87a3.64,3.64,0,0,0,1.44-3.1,7.29,7.29,0,0,0-2-5,8.94,8.94,0,0,0-5.46-2.27l-.28,0,.06-.27a23.17,23.17,0,0,0,.34-2.32c0-1.1-.39-1.71-1.2-1.84a1.66,1.66,0,0,0-1.52.83,2.1,2.1,0,0,1,.94-.39l.18,0,.08.16a3.62,3.62,0,0,1,.38,1.63,10.19,10.19,0,0,1-.48,2.19l-.05.14-.14,0a22,22,0,0,0-5.33,1.85l-.48.24.13-.52A2.72,2.72,0,0,0,172,44c-.23-1.06-.43-1.88-.58-2.44v0a15.9,15.9,0,0,0-.8-2.17,3.55,3.55,0,0,0-.23-.4c0,2.11,0,4.55-.11,7.45v.12l-.09.07c-.4.32-.95.72-1.66,1.19a9.18,9.18,0,0,0-2.63,2.51l-.37,1a6.57,6.57,0,0,1,1.45,2.07c.6,1.38,1.08,1.71,1.38,1.73.45-.15,1-.38,1.69-.68.9-.61,1.69-1.11,2.31-1.51l.12-.07.13.06a2.93,2.93,0,0,1,.77.52c.3.3.43.28.47.27s.27-.14.39-1.13c-.08-.31-.16-.7-.23-1.15l0-.14.11-.09a14.63,14.63,0,0,0,2.54-2.77,23,23,0,0,0,2.08-3.7ZM168.54,53a1.12,1.12,0,0,1-.27,0l-.07,0a8.1,8.1,0,0,1-1.58-1.45l-.07-.08v-.1c.09-1,1.28-2.06,3.65-3.37l.29-.16.07.33a12.58,12.58,0,0,0,1,3l.08.18-.15.12c-.46.39-1,.79-1.54,1.19A3.89,3.89,0,0,1,168.54,53Zm-.11-.51a2.63,2.63,0,0,0,1.33-.35c.45-.32.9-.67,1.31-1a12.8,12.8,0,0,1-.91-2.59c-2.32,1.31-3,2.18-3.08,2.7A8.26,8.26,0,0,0,168.43,52.51Zm4.7-2.52-.34-1a10.8,10.8,0,0,1-.48-1.79l0-.17.14-.09a17.4,17.4,0,0,1,4.39-2l.65-.21-.36.58a33.44,33.44,0,0,1-2.83,4l-.44.52v-.48a1.58,1.58,0,0,1-.42.47Zm-.3-2.75a9.29,9.29,0,0,0,.42,1.54l.11.33a1.63,1.63,0,0,0,.24-.63l.08-.48.34.35a.91.91,0,0,1,.17.23,34.57,34.57,0,0,0,2.12-3A16.33,16.33,0,0,0,172.83,47.24Z"/>
    </g>
  </g>
  <g>
    <ellipse class="cls-18" cx="205.62" cy="47.72" rx="16.46" ry="15.73" transform="translate(139.24 248.1) rotate(-84.74)"/>
    <g>
      <path class="cls-19" d="M208.55,37.69A5.51,5.51,0,0,1,210.19,39q.36,1.65-7,8.79A16,16,0,0,1,206,47a16.23,16.23,0,0,1,2.23-.12,6,6,0,0,1,2.46.47,9.23,9.23,0,0,1,2.58,2.11,2.49,2.49,0,0,1,.58,1.64q.12,2.46-4.33,5.16A17.7,17.7,0,0,1,204,57.85a1.66,1.66,0,0,1-1.87-.94c-.32-.39-.75-.86-1.29-1.4-.08-.47-.16-.86-.24-1.18a1.87,1.87,0,0,1,.94-1,3.56,3.56,0,0,1,2.34-.59,9.74,9.74,0,0,1,1.64.12,5.65,5.65,0,0,1,2,.7c.31.16.58.32.82.47,2-1.32,3-2.46,3-3.4a2.72,2.72,0,0,0-.93-1.87,3.38,3.38,0,0,0-1.64-1.05,15.24,15.24,0,0,0-2.82.82,33.17,33.17,0,0,0-6.91,3c-1,.86-1.56.47-1.64-1.17a1.73,1.73,0,0,1,1.17-1.29,41.06,41.06,0,0,0,5.86-5.51,19.36,19.36,0,0,0,3.05-4.1l-.12-.23-.94.35a11.25,11.25,0,0,1-3.05,1.17c-.62,0-1.4-.51-2.34-1.52l-.59-.59c-.23-.23-.15-.39.24-.47a6.6,6.6,0,0,0,2.11.71,44,44,0,0,0,4.33-1.18A2.27,2.27,0,0,1,208.55,37.69ZM203.39,55a2.11,2.11,0,0,0,1.06.7,5.32,5.32,0,0,0,1.64-.82,3,3,0,0,0-1.88-.7,1,1,0,0,0-.7.23C203.12,54.53,203.08,54.73,203.39,55Z"/>
      <path class="cls-19" d="M203.71,58.11a1.84,1.84,0,0,1-1.82-1.06,16.48,16.48,0,0,0-1.25-1.37l-.06,0v-.08c-.08-.46-.15-.85-.23-1.16l0-.08,0-.07a2,2,0,0,1,1.08-1.19,3.64,3.64,0,0,1,2.46-.6h0a11.4,11.4,0,0,1,1.63.11,5.94,5.94,0,0,1,2.08.74,7.13,7.13,0,0,1,.69.38c1.79-1.23,2.73-2.28,2.8-3.12a2.47,2.47,0,0,0-.86-1.67,3.26,3.26,0,0,0-1.46-1,14.87,14.87,0,0,0-2.73.8,33.75,33.75,0,0,0-6.85,3c-.53.45-1,.59-1.33.43s-.66-.75-.71-1.79a2,2,0,0,1,1.32-1.53,42.12,42.12,0,0,0,5.77-5.44,23.76,23.76,0,0,0,2.93-3.83l-.66.24a11,11,0,0,1-3.1,1.19h0c-.73,0-1.56-.53-2.55-1.6l-.58-.58a.51.51,0,0,1-.19-.52c.08-.28.43-.35.55-.37l.09,0,.08.05a6.44,6.44,0,0,0,2,.66c.85-.16,2.29-.55,4.26-1.15a2.32,2.32,0,0,1,1.56,0h0a5.6,5.6,0,0,1,1.72,1.35l.06.11c.15.73-.35,2.38-6.29,8.23a13.66,13.66,0,0,1,1.78-.45,15.32,15.32,0,0,1,2.27-.13,6.35,6.35,0,0,1,2.56.49,9.1,9.1,0,0,1,2.66,2.17,2.74,2.74,0,0,1,.65,1.81c.09,1.75-1.37,3.51-4.45,5.37A18.08,18.08,0,0,1,204,58.1Zm-2.66-2.72a16.84,16.84,0,0,1,1.25,1.37l0,.05a1.44,1.44,0,0,0,1.63.79A17.41,17.41,0,0,0,209.39,56c2.84-1.72,4.26-3.38,4.18-4.91a2.26,2.26,0,0,0-.52-1.5,8.83,8.83,0,0,0-2.49-2,5.91,5.91,0,0,0-2.36-.45,15.69,15.69,0,0,0-2.19.12,14.66,14.66,0,0,0-2.76.81l-1.15.44.89-.86c6.13-5.94,7-7.87,7-8.5a5,5,0,0,0-1.5-1.16,1.88,1.88,0,0,0-1.24,0,43.24,43.24,0,0,1-4.37,1.18h-.09a7.1,7.1,0,0,1-2.1-.68h0l.59.59c.89,1,1.61,1.45,2.16,1.45a11.42,11.42,0,0,0,2.94-1.14l1.17-.45.26.53,0,.09c-.17.59-1.19,2-3.1,4.2a42.12,42.12,0,0,1-5.9,5.54c-.67.31-1,.67-1.07,1.13.05,1,.3,1.26.41,1.31s.45-.06.82-.37c1-.73,3.26-1.74,7-3.09a16.16,16.16,0,0,1,2.85-.83h.09a3.56,3.56,0,0,1,1.77,1.12,3,3,0,0,1,1,2c-.08,1.05-1.12,2.22-3.15,3.61l-.14.09-.14-.09a7.9,7.9,0,0,0-.8-.45,5.26,5.26,0,0,0-1.91-.68,9.61,9.61,0,0,0-1.61-.12,3.3,3.3,0,0,0-2.2.55,1.55,1.55,0,0,0-.81.87C200.91,54.64,201,55,201.05,55.39Zm3.4.61-.08,0a2.3,2.3,0,0,1-1.16-.78c-.1-.1-.34-.35-.26-.63a.57.57,0,0,1,.44-.35,1.24,1.24,0,0,1,.82-.25,3.26,3.26,0,0,1,2.06.77l.19.2-.21.18a5.62,5.62,0,0,1-1.72.86Zm-1-1.27s0,.07.11.13l0,0a1.86,1.86,0,0,0,.86.59,5.9,5.9,0,0,0,1.23-.57,3.06,3.06,0,0,0-1.49-.44.68.68,0,0,0-.5.16l-.05,0-.08,0Z"/>
    </g>
  </g>
</svg>
