<svg id="レイヤー_1" data-name="レイヤー 1" xmlns="http://www.w3.org/2000/svg" viewBox="0 0 301.83 251.72">
  <defs>
    <style>
      .cls-1 {
        fill: #231815;
      }

      .cls-1, .cls-2, .cls-3, .cls-6, .cls-7 {
        stroke: #231815;
      }

      .cls-1, .cls-2, .cls-4 {
        stroke-width: 0.84px;
      }

      .cls-2, .cls-3 {
        fill: #fff;
      }

      .cls-3 {
        stroke-width: 0.89px;
      }

      .cls-4 {
        fill: #e83828;
        stroke: #e83828;
      }

      .cls-5 {
        fill: #e8d825;
        stroke: #444344;
        stroke-width: 0.54px;
      }

      .cls-6 {
        fill: #b28247;
      }

      .cls-6, .cls-7 {
        stroke-miterlimit: 10;
        stroke-width: 0.45px;
      }

      .cls-7 {
        fill: #7f4f21;
      }
    </style>
  </defs>
  <title>siopanda16</title>
  <g>
    <path class="cls-1" d="M47,175s-17.69,51.43-27,46.25S1.08,204.44,1.08,204.44s-5.92-4.64,17.64-22.88c25.75-19.94,27.67-16.68,27.67-16.68Z"/>
    <path class="cls-1" d="M131.78,127.61s16.63,32.09,22.06,58c1.31,10.87,24.94,20.26,26-7-.92-6.71-9.48-38.37-34.24-55.48C136.8,118.06,129.37,120.68,131.78,127.61Z"/>
    <path class="cls-1" d="M85.65,199S44.41,232,51.86,239.59A54.88,54.88,0,0,0,69.34,251s6,4.5,17.43-23c12.45-30.09,8.8-31.08,8.8-31.08Z"/>
    <path class="cls-1" d="M225.64,63.48c-10.65,4.84-14.82,18.59-9.31,30.71s18.6,18,29.25,13.2,14.82-18.59,9.31-30.71S236.29,58.65,225.64,63.48Z"/>
    <path class="cls-2" d="M120.9,84.9S101.8,103.33,64,127.11,36.84,174.28,45.49,182.6s26,27.9,42.27,28.15,41.21-16.38,54.75-61.2c8.77-33.55,16.36-37.32,16.36-37.32Z"/>
    <path class="cls-1" d="M144,14.5c-3.59,11.14,3.78,23.47,16.45,27.55s25.86-1.63,29.44-12.76S186.12,5.82,173.45,1.74,147.59,3.37,144,14.5Z"/>
    <path class="cls-3" d="M127.87,41.77c-21.16,21.5-18.14,58.78,6.74,83.26s62.19,26.89,83.35,5.39,18.15-58.79-6.73-83.26S149,20.27,127.87,41.77Z"/>
    <path class="cls-1" d="M201.45,78.19c-7.06,4.49-8.31,15.16-2.8,23.84s15.72,12.07,22.78,7.58,8.32-15.17,2.8-23.84S208.51,73.7,201.45,78.19Z"/>
    <path class="cls-1" d="M188.89,65.11c3.74-7.49-.68-17.28-9.88-21.88S159.32,41,155.58,48.48s.69,17.28,9.89,21.87S185.15,72.6,188.89,65.11Z"/>
    <path class="cls-4" d="M123.67,52.44c-1.41,1.43,1.82,6.9,7.21,12.21s10.91,8.44,12.33,7S141.4,64.75,136,59.44,125.09,51,123.67,52.44Z"/>
    <path class="cls-4" d="M197.82,122.88c-1.41,1.43,1.81,6.9,7.2,12.21s10.92,8.44,12.33,7-1.81-6.9-7.2-12.21S199.24,121.44,197.82,122.88Z"/>
    <path class="cls-1" d="M115.29,108.52s-35.58,6.38-59.46,17.89C46.41,132,24.56,119,45.57,101.53c5.89-3.36,36.2-15.87,64.86-6.67C119.79,98.72,122.24,106.21,115.29,108.52Z"/>
    <path class="cls-5" d="M250,115.93c-3.72.45-15.68,13.56-15.68,13.56s8.45-15.1,8.35-19.16-3.12-8.15-3.12-8.15,6.1,1.41,9.37.87S264.46,90,264.46,90s-8.88,14.76-8.72,18.17,3.49,9.13,3.49,9.13S253.68,115.48,250,115.93Z"/>
    <path d="M169.28,98.13c-9.24.16-15.92-9.12-18.42-17.69a13.86,13.86,0,0,1-.48-7.3c1.55-6.4,8.05-10.27,8.43-9.93s-2.21,2.09-3.14,5.55a11.43,11.43,0,0,0,1,8.42C159,81,163.41,82,166.87,82.88c2.19.53,2.24.22,4.19.82,2.79.84,6.48,2,7.65,5.17a6.83,6.83,0,0,1-1.05,6.47C175.59,97.85,170.71,98.1,169.28,98.13Z"/>
    <path d="M172.72,105.11c1.06,8.36,11.84,11,20.5,12.07a14.64,14.64,0,0,0,7.16-.58c6-2.29,8.93-8.69,8.55-9s-1.74,2.28-5,3.6a12,12,0,0,1-8.32.25c-4-1.54-5.61-5.38-6.88-8.39-.8-1.9-.51-2-1.34-3.66-1.19-2.4-2.76-5.58-6-6.19a7.14,7.14,0,0,0-6.15,1.85C173.05,97.3,172.56,103.82,172.72,105.11Z"/>
    <path class="cls-6" d="M154.6,186.88c-4.84,1-8.59.14-11.34-4.2s-.37-11.14,4.74-11.6,4.84-2.74,4.84-2.74.25-4-6.08-1.74-12.61,6.49-7.82,18.16c0,0,5,13.23,19.09,6.46,9.19-4.42,85.81-40.88,138.89-66.88l-2.22-4.11C239,147.15,157.77,186.22,154.6,186.88Z"/>
    <path class="cls-7" d="M292.79,126.38a6.32,6.32,0,0,0-2-4.21s9.12-6.07,10.68-2.83S292.79,126.38,292.79,126.38Z"/>
  </g>
</svg>
