<svg id="レイヤー_1" data-name="レイヤー 1" xmlns="http://www.w3.org/2000/svg" viewBox="0 0 501.76 286.83">
  <defs>
    <style>
      .cls-1, .cls-2, .cls-3, .cls-4, .cls-6 {
        stroke: #231815;
      }

      .cls-1 {
        stroke-width: 0.67px;
      }

      .cls-2, .cls-4, .cls-5 {
        fill: #fff;
      }

      .cls-2 {
        stroke-width: 1.5px;
      }

      .cls-3 {
        stroke-width: 2px;
      }

      .cls-5 {
        stroke: #fff;
      }

      .cls-6 {
        fill: #c1c2c2;
      }
    </style>
  </defs>
  <title>泥酔しおぱんだ</title>
  <path class="cls-1" d="M107.54,186.86c-24.79,13.25-54.75,29.52-72.24,52.79-5.62,7.47-9.22,22.59-20.24,23.92C4.53,264.84.1,249.61.35,241.3c.33-12,7-23.23,14.32-31.49,18.24-20.52,46.66-26.29,72.23-32.93" transform="translate(0 0)"/>
  <path d="M388.33,190.36c18-3.8,17.6-10.39,30.42-10.32,21.05.17,59.88,11.71,59.1-21.08-1.2-48.69-79.43-13.43-97.23-3.66,0,0-29,11.12-29,11.12Z" transform="translate(0 0)"/>
  <path d="M393.39,199.55c20.06-2.12,22.62,3.91,35.7-.1,21.45-6.59,56-28.83,69.8.77,20.52,44-75.2,36.37-97.76,33.09l-34.6-1.07Z" transform="translate(0 0)"/>
  <path class="cls-2" d="M247.12,90.5c21.49-10.06,70.51-12.64,96.63-1.52,33,14.06,68.05,66.34,58.41,110.64-6.11,28.08-27,36.18-50.08,40.64-62.77,12.13-100.95,4.1-130.38-.87-26.94-4.53-19.27-4.35-44.18-18.1-11.08-6.1-34.26-11.46-34.5-23.06C142,148.85,182.62,120.69,247.12,90.5Z" transform="translate(0 0)"/>
  <path class="cls-3" d="M85.59,86.65A36.36,36.36,0,1,1,58.84,42.78,36.33,36.33,0,0,1,85.59,86.65Z" transform="translate(0 0)"/>
  <path class="cls-2" d="M241.87,183.82c-12.65,52.3-75.5,82-140.39,66.24S-5.7,179.22,7,126.9,82.47,45,147.35,60.66,254.53,131.54,241.87,183.82Z" transform="translate(0 0)"/>
  <path class="cls-4" d="M65.17,191.47s4.64,15.46,13,19.56c5.06,2.5,11.39.89,19-10.62,0,0,4.66,16.79,17.17,17.86,5.67.52,13-2.22,22.22-11.27" transform="translate(0 0)"/>
  <path class="cls-3" d="M83.44,135.62c3.8,12-6.78,26.08-23.68,31.43S26.1,167,22.3,155s6.8-26.1,23.67-31.45S79.62,123.63,83.44,135.62Z" transform="translate(0 0)"/>
  <g>
    <path class="cls-3" d="M249.51,125.58c-10.27,17.7-32.53,23.89-49.74,13.87S176.87,107,187.1,89.34s32.59-23.88,49.82-13.85S259.78,107.93,249.51,125.58Z" transform="translate(0 0)"/>
    <path class="cls-5" d="M225.49,166c13.86-11.61,10.5-38.42-7.48-59.9s-43.79-29.49-57.65-17.88-10.52,38.41,7.49,59.9S211.63,177.58,225.49,166Z" transform="translate(0 0)"/>
  </g>
  <path class="cls-3" d="M192.33,189.49c-6.8,9.79-25,9-40.64-1.85s-22.79-27.5-16-37.32,24.95-9,40.61,1.82S199.08,179.67,192.33,189.49Z" transform="translate(0 0)"/>
  <path class="cls-1" d="M263.21,213.2c-11.25,23.9-22.39,50.67-46,64.71-9.52,5.65-21.76,10-33.64,8.12-8.21-1.34-22.32-8.56-19.09-18.67,3.4-10.56,18.93-11.24,27.34-15.36,14.73-7.2,25.8-19.19,36-31.69,6.3-7.66,12.4-21.75,20.59-27.73C258.61,185.2,268.84,201.26,263.21,213.2Z" transform="translate(0 0)"/>
  <path class="cls-6" d="M79,210.82s-2.76,10,14.7,13.05,26.57-4.55,26.57-4.55-21.13-2.55-22.33-19.12S100.72,210.67,79,210.82Z" transform="translate(0 0)"/>
  <path class="cls-4" d="M117.81,227.25s-20.07,39.34,4.75,45.15S117.81,227.25,117.81,227.25Z" transform="translate(0 0)"/>
  <g>
    <line class="cls-1" x1="118.73" y1="27.89" x2="118.73" y2="97.61"/>
    <line class="cls-1" x1="136.58" y1="40.57" x2="136.58" y2="87.47"/>
    <line class="cls-1" x1="162.08" x2="162.08" y2="102.68"/>
  </g>
</svg>
