<svg id="レイヤー_1" data-name="レイヤー 1" xmlns="http://www.w3.org/2000/svg" viewBox="0 0 307.87 106.51">
  <defs>
    <style>
      .cls-1, .cls-5, .cls-7 {
        fill: #fff;
      }

      .cls-2 {
        fill: #404040;
      }

      .cls-3 {
        fill: none;
      }

      .cls-3, .cls-4, .cls-5, .cls-7 {
        stroke: #1a1a1a;
      }

      .cls-3, .cls-5, .cls-7 {
        stroke-width: 2px;
      }

      .cls-4, .cls-8 {
        fill: #1a1a1a;
      }

      .cls-6 {
        fill: #b4b4b5;
      }

      .cls-7 {
        stroke-linecap: round;
        stroke-linejoin: round;
      }

      .cls-9 {
        fill: #4d4d4d;
        stroke: #4d4d4d;
        stroke-miterlimit: 10;
      }
    </style>
  </defs>
  <title>favicon</title>
  <path class="cls-1" d="M57.06,90.34C49.65,89,42.56,85.83,35,85.4l-6,.25s-2.38-13.58,4.3-25.43S42.44,42.79,49,43.36s8.73-.14,12.45,2.57,8.87,23.27,8.87,26.15-2.09,17.15-2.91,18.41Z" transform="translate(86.14 0)"/>
  <path class="cls-2" d="M-84.23,93.36C-79,85.83-67.57,82.24-59.38,78.79-50.49,75-41.2,72-31.5,71.36c14.15-.88,29.32,3.41,42.05-4.81,1.1-.7-.54-1.13-1.23-.69-9,5.79-19.58,4.75-29.74,4.33a80.55,80.55,0,0,0-23.42,2c-8.52,2.16-16.63,5.66-24.59,9.35-6.43,3-13.44,5.66-17.61,11.71-.54.78,1.41.69,1.81.11Z" transform="translate(86.14 0)"/>
  <path class="cls-3" d="M29.07,85.65s-2.38-13.58,4.3-25.43S42.44,42.79,49,43.36s8.73-.14,12.45,2.57,8.87,23.27,8.87,26.15-2.09,17.15-2.91,18.41" transform="translate(86.14 0)"/>
  <g>
    <path class="cls-4" d="M92.09,19.66A8.78,8.78,0,1,1,74.62,18a8.78,8.78,0,1,1,17.47,1.7Z" transform="translate(86.14 0)"/>
    <path class="cls-4" d="M45.23,10.2A8.85,8.85,0,1,1,37.29.54,8.85,8.85,0,0,1,45.23,10.2Z" transform="translate(86.14 0)"/>
    <path class="cls-5" d="M85.69,35C84.42,48,70.29,57.3,54.13,55.72S25.9,42.3,27.17,29.27,42.57,7,58.74,8.54,87,22,85.69,35Z" transform="translate(86.14 0)"/>
    <path class="cls-6" d="M79.16,41.48c-.68,1.5-3.23,1.79-5.68.67S69.6,38.9,70.29,37.4s3.23-1.79,5.68-.66S79.85,40,79.16,41.48Z" transform="translate(86.14 0)"/>
    <path class="cls-6" d="M40.7,34.9c.1,1.57-2,3-4.64,3.16s-4.9-1-5-2.53,2-3,4.63-3.16S40.59,33.33,40.7,34.9Z" transform="translate(86.14 0)"/>
    <path class="cls-7" d="M47.82,35.58a4.18,4.18,0,0,0,5.24,1,9.79,9.79,0,0,0,1.48-1,7.6,7.6,0,0,0,1.31-1.2c-.39.23.28,1.35.4,1.55a5.24,5.24,0,0,0,7.47,2" transform="translate(86.14 0)"/>
    <ellipse class="cls-8" cx="44.42" cy="25.83" rx="6.93" ry="4.7" transform="translate(79.68 18.65) rotate(-22.14)"/>
    <ellipse class="cls-8" cx="68.69" cy="28" rx="5" ry="6.99" transform="translate(93.09 69.11) rotate(-55.83)"/>
  </g>
  <ellipse class="cls-9" cx="50.88" cy="71.87" rx="13.46" ry="43.99" transform="translate(58.38 111.49) rotate(-81.44)"/>
  <path class="cls-8" d="M63.81,54.49c.49-.06,3.85,8.77,4.22,9.61a31.48,31.48,0,0,1,2.48,8.14c.42,3,1.21,7.29,4.84,7.21,4.36-.09,8.25-5.61,6.84-9.8a27.31,27.31,0,0,0-5.28-8.79c-2-2.26-5.23-5.47-8.41-5.68C67.11,55.08,65.2,54.31,63.81,54.49Z" transform="translate(86.14 0)"/>
  <path class="cls-8" d="M39.73,51.46c-.41-.2-5.6,6.78-6.13,7.42a29.64,29.64,0,0,0-4.26,6.62c-1.14,2.55-2.95,6.22-6,5.08-3.69-1.37-4.84-8.14-2.53-11.5,1.72-2.51,3.55-4.68,6.09-5.75s5.9-3.39,8.67-2.64C36.75,51,38.58,50.88,39.73,51.46Z" transform="translate(86.14 0)"/>
  <path class="cls-1" d="M37.24,55.37l-.83,1.47-5.31,11s11.8,4.12,17.54,5.11,21,1.21,21,1.21l-3-13.46s-12.32-3.73-15.35-4.2S37.24,55.37,37.24,55.37Z" transform="translate(86.14 0)"/>
  <path class="cls-2" d="M75.26,56C86.77,50.59,98.6,45.17,111.51,44.7c5.79-.21,11.6.43,17.38-.13A54.82,54.82,0,0,0,142.66,41a271.76,271.76,0,0,0,60.85-32c1.07-.75-.51-1.38-1.28-.85C182.82,21.71,161.38,33.48,138.88,41c-11.32,3.77-22.83,1.18-34.37,3.07-10.59,1.74-20.45,6.31-30.1,10.8-1.2.56-.13,1.56.85,1.11Z" transform="translate(86.14 0)"/>
  <path class="cls-2" d="M93.13,106.4c11.51-5.36,23.35-10.78,36.25-11.25,5.79-.21,11.6.43,17.38-.13a54.89,54.89,0,0,0,13.78-3.54,271.9,271.9,0,0,0,60.84-32c1.07-.75-.51-1.38-1.28-.85-19.41,13.51-40.85,25.28-63.35,32.77-11.32,3.77-22.83,1.18-34.37,3.07-10.59,1.74-20.44,6.31-30.1,10.81-1.2.55-.13,1.55.85,1.1Z" transform="translate(86.14 0)"/>
  <path class="cls-2" d="M77,84.45c-9.48,11-24.94,3.13-36.46.9a33.66,33.66,0,0,0-27.7,6.7c-1,.81.51,1.55,1.3.94a30.53,30.53,0,0,1,22.32-6.72C42.81,87,48.8,89.41,55,90.72c8.32,1.76,17.7,1.2,23.58-5.65.8-.93-1-1.31-1.63-.62Z" transform="translate(86.14 0)"/>
  <path class="cls-3" d="M29.07,85.65" transform="translate(86.14 0)"/>
</svg>
